<?xml version="1.0" encoding="UTF-8"?>
<svg version="1.1" xmlns="http://www.w3.org/2000/svg" width="1024" height="1024">
<path d="M0 0 C1.5778125 1.175625 1.5778125 1.175625 3.1875 2.375 C3.1875 3.035 3.1875 3.695 3.1875 4.375 C3.77402344 4.601875 4.36054687 4.82875 4.96484375 5.0625 C11.52629762 8.93710193 14.81543719 18.03010405 16.6796875 25.0859375 C16.84726562 25.84132813 17.01484375 26.59671875 17.1875 27.375 C17.35993823 28.12727182 17.53237646 28.87954365 17.71004009 29.65461159 C18.21877589 32.55319837 18.32220036 35.2478567 18.33467102 38.1902771 C18.34540398 39.93504333 18.34540398 39.93504333 18.35635376 41.71505737 C18.35904266 42.98261871 18.36173157 44.25018005 18.36450195 45.55615234 C18.37077247 46.91184664 18.37741979 48.26753923 18.38441467 49.62322998 C18.40540114 54.06912045 18.41581731 58.51501101 18.42578125 62.9609375 C18.42983191 64.49755495 18.43394892 66.03417224 18.43813133 67.57078934 C18.45717724 74.79762324 18.47140517 82.02444701 18.4797433 89.25130117 C18.48949039 97.55989625 18.51574587 105.86822312 18.55624419 114.17672384 C18.58655233 120.61862152 18.60122631 127.06044302 18.60452431 133.50241053 C18.6068596 137.33987709 18.61561793 141.17705699 18.64098549 145.01444626 C18.66452789 148.63431832 18.66839652 152.25372038 18.65822411 155.8736496 C18.65750449 157.80902685 18.67641364 159.74438165 18.69628906 161.67965698 C18.54087299 188.34495308 4.32702018 207.58374031 -13.84686279 225.65368652 C-16.2679752 228.04502585 -18.69586087 230.42931691 -21.125 232.8125 C-23.57663241 235.22887797 -26.02600047 237.64749233 -28.47270203 240.06886292 C-29.98312311 241.56251398 -31.49662818 243.05305531 -33.01374817 244.53990173 C-36.8573037 248.32894752 -40.41118285 252.18588208 -43.8125 256.375 C-45.11261325 257.59878085 -46.44312298 258.79175108 -47.8125 259.9375 C-51.92575675 263.4531704 -55.79404397 266.84731596 -58.8125 271.375 C-59.4725 271.375 -60.1325 271.375 -60.8125 271.375 C-61.1425 272.365 -61.4725 273.355 -61.8125 274.375 C-63.25 276.0625 -63.25 276.0625 -64.8125 277.375 C-65.4725 277.375 -66.1325 277.375 -66.8125 277.375 C-67.0703125 277.97183594 -67.328125 278.56867188 -67.59375 279.18359375 C-68.91308422 281.55585817 -70.1999932 282.75913125 -72.3125 284.4375 C-74.74914912 286.38372186 -76.03512121 287.70893182 -77.8125 290.375 C-78.4725 290.375 -79.1325 290.375 -79.8125 290.375 C-80.1528125 291.24125 -80.1528125 291.24125 -80.5 292.125 C-82.14166107 294.93927613 -84.24809053 296.40237733 -86.8125 298.375 C-87.1425 299.035 -87.4725 299.695 -87.8125 300.375 C-88.4725 300.375 -89.1325 300.375 -89.8125 300.375 C-90.1528125 301.2103125 -90.1528125 301.2103125 -90.5 302.0625 C-92.18274288 305.0273327 -94.37366488 306.99160771 -96.8125 309.375 C-97.66626221 310.22876221 -98.52002441 311.08252441 -99.3996582 311.9621582 C-105.87060547 318.43310547 -112.34155273 324.90405273 -118.8125 331.375 C-117.49942934 331.37315641 -116.18635868 331.37131283 -114.833498 331.36941338 C-83.59855378 331.32601045 -52.36361757 331.29307544 -21.1286502 331.27286934 C-17.27635919 331.27036821 -13.42406825 331.26777953 -9.57177734 331.26513672 C-8.80492032 331.2646121 -8.0380633 331.26408748 -7.24796818 331.26354696 C5.1362128 331.25486642 17.52037504 331.23910952 29.90454493 331.22069441 C42.63083034 331.20192971 55.35710599 331.19086945 68.08340466 331.18682301 C75.923502 331.18409152 83.76354633 331.17549386 91.60362734 331.15916707 C97.63575853 331.14725231 103.66784504 331.14610511 109.69998932 331.14878464 C112.15964456 331.1482382 114.61930197 331.14431103 117.07894516 331.13658905 C152.87942573 331.02978713 152.87942573 331.02978713 166.625 336.125 C167.73862915 336.51860718 167.73862915 336.51860718 168.87475586 336.92016602 C178.78728366 340.53659287 187.12594682 345.59694992 195.1875 352.375 C195.93902344 352.98085938 196.69054687 353.58671875 197.46484375 354.2109375 C213.77085178 367.86896132 222.77112935 388.53950212 225.1875 409.375 C226.29999634 435.27287999 220.39026638 459.6319369 203.02416992 479.3737793 C188.58422515 495.03286893 168.68971933 506.59514616 147.1875 508.375 C142.64841897 508.52140689 138.11169227 508.51853088 133.57054138 508.51544189 C132.18839357 508.51802899 130.8062465 508.5210431 129.42410046 508.5244453 C125.64020187 508.53247814 121.85632229 508.53430278 118.07241619 508.53504276 C113.98565535 508.53689982 109.89890423 508.54445042 105.81214905 508.55117798 C96.8821497 508.56473546 87.95215486 508.570782 79.02214694 508.57518864 C73.4412322 508.57795547 67.86031917 508.58219363 62.27940559 508.58669281 C46.81318871 508.59888217 31.34697319 508.6091821 15.88075161 508.6125679 C14.89168863 508.61278747 13.90262565 508.61300703 12.88359106 508.61323325 C11.89222523 508.61345153 10.90085939 508.61366981 9.87945217 508.6138947 C7.87072527 508.61433816 5.86199838 508.61478472 3.85327148 508.61523438 C2.85688359 508.6154558 1.8604957 508.61567723 0.83391423 508.61590537 C-15.30238114 508.61985137 -31.4386313 508.63730083 -47.57490922 508.6605939 C-64.16042872 508.68434128 -80.74592556 508.69677129 -97.33146232 508.69793582 C-106.63608034 508.69885068 -115.94063944 508.70455536 -125.24524117 508.72275543 C-133.16989401 508.73820219 -141.09446972 508.74324999 -149.01913477 508.73501733 C-153.05746316 508.73112695 -157.09563644 508.73196093 -161.13394547 508.74607468 C-164.8408983 508.75891109 -168.54758101 508.75753192 -172.254534 508.74548396 C-174.20950382 508.74263429 -176.16447875 508.75438845 -178.11941057 508.76690602 C-205.58732201 508.61547858 -228.99299806 496.7792056 -248.34375 477.90625 C-264.23190831 461.14750767 -272.03773459 439.40290983 -272.48950195 416.54882812 C-272.52251813 415.34762581 -272.55553431 414.14642349 -272.58955097 412.90882111 C-272.93243669 399.18582206 -272.977174 385.45882312 -272.97975707 371.73224449 C-272.98048165 369.55497879 -272.98264113 367.37771892 -272.98525429 365.20045471 C-272.99440773 357.55225235 -272.99860066 349.90406704 -272.99780273 342.25585938 C-272.99719983 335.20516323 -273.00781931 328.15454303 -273.0235464 321.1038661 C-273.0367226 314.97140133 -273.04198268 308.83896118 -273.04134732 302.70648241 C-273.04109593 299.07776707 -273.04374571 295.4491201 -273.05452538 291.82041931 C-273.14417268 259.32356099 -272.59107222 229.80587172 -249.8125 204.375 C-249.1834375 203.63765625 -248.554375 202.9003125 -247.90625 202.140625 C-241.81538325 195.13129421 -235.16193768 188.66465588 -228.55126953 182.15039062 C-223.58579306 177.25455153 -223.58579306 177.25455153 -218.98828125 172.01953125 C-217.03693453 169.64778667 -215.11041632 167.75996078 -212.75 165.8125 C-209.69365226 163.21232357 -207.3117281 160.51919019 -204.8125 157.375 C-203.70387622 156.39776866 -202.57707445 155.44095581 -201.4375 154.5 C-198.22957196 151.85087233 -195.6494855 148.9549652 -193.07421875 145.6953125 C-192.65785156 145.25960937 -192.24148438 144.82390625 -191.8125 144.375 C-191.1525 144.375 -190.4925 144.375 -189.8125 144.375 C-189.48185547 143.55322266 -189.48185547 143.55322266 -189.14453125 142.71484375 C-187.39379871 139.63951006 -185.02302934 137.37341279 -182.5 134.9375 C-182.02626953 134.47279297 -181.55253906 134.00808594 -181.06445312 133.52929688 C-179.64983614 132.14177242 -178.23118488 130.75836493 -176.8125 129.375 C-175.14327121 127.71089941 -173.47651907 126.04431007 -171.8125 124.375 C-163.79166667 116.35416667 -155.77083333 108.33333333 -147.75 100.3125 C-147.25862549 99.82096436 -146.76725098 99.32942871 -146.26098633 98.82299805 C-144.8665449 97.42902668 -143.47041546 96.03674452 -142.07421875 94.64453125 C-140.57144537 93.13656694 -139.0879909 91.60909039 -137.625 90.0625 C-135.8125 88.375 -135.8125 88.375 -133.8125 88.375 C-133.56983398 87.80767151 -133.32716797 87.24034302 -133.07714844 86.65582275 C-131.56910785 83.93603662 -129.77573905 82.08398435 -127.578125 79.88183594 C-126.70381836 79.00122498 -125.82951172 78.12061401 -124.92871094 77.21331787 C-123.97356205 76.2617478 -123.01815216 75.31043964 -122.0625 74.359375 C-121.08336602 73.37889341 -120.10452907 72.39811513 -119.12597656 71.41705322 C-117.07810571 69.36623841 -115.02667216 67.31907365 -112.97265625 65.27441406 C-110.33609985 62.64928192 -107.70866355 60.01523305 -105.08380127 57.37841415 C-103.06630379 55.3537041 -101.04408501 53.33376392 -99.02038574 51.31525421 C-98.04924562 50.34545069 -97.07959572 49.37415258 -96.1114502 48.40135956 C-94.76142166 47.04627264 -93.40432027 45.69824314 -92.046875 44.35058594 C-90.89010254 43.19620026 -90.89010254 43.19620026 -89.70996094 42.01849365 C-87.8125 40.375 -87.8125 40.375 -85.8125 40.375 C-85.54416855 39.78266068 -85.2758371 39.19032135 -84.99937439 38.58003235 C-83.80372641 36.35869999 -82.58673959 34.88404821 -80.82250977 33.09448242 C-80.21750137 32.47671432 -79.61249298 31.85894623 -78.989151 31.22245789 C-78.33402023 30.56510147 -77.67888947 29.90774506 -77.00390625 29.23046875 C-76.32255112 28.54245682 -75.64119598 27.85444489 -74.93919373 27.14558411 C-73.49344535 25.68971443 -72.04497265 24.23654584 -70.59399414 22.78588867 C-68.40374013 20.59129705 -66.22995032 18.38127746 -64.05664062 16.16992188 C-45.89065264 -2.1422681 -25.19848429 -15.00333782 0 0 Z " fill="#9E1CFD" transform="translate(549.8125,262.625)"/>
<path d="M0 0 C1.0550044 -0.00739211 2.11000881 -0.01478421 3.19698304 -0.02240032 C6.72711545 -0.0385945 10.25497493 -0.00481476 13.78495789 0.02882385 C16.31833214 0.02752393 18.85170639 0.0231699 21.3850708 0.01599121 C27.55139172 0.00652889 33.7168713 0.02941471 39.88306186 0.06700479 C47.07823831 0.10933361 54.27328809 0.11357245 61.46857025 0.11602414 C74.32320416 0.1215877 87.17753011 0.15984551 100.0320282 0.21730042 C112.47182521 0.27285773 124.91144638 0.30838063 137.35136414 0.31983948 C138.11596666 0.32054774 138.88056919 0.32125599 139.6683415 0.32198571 C141.20892523 0.32339508 142.74950897 0.32479948 144.29009272 0.32619888 C145.43037144 0.32723492 145.43037144 0.32723492 146.5936861 0.32829189 C147.35209367 0.32897032 148.11050123 0.32964875 148.89189084 0.33034774 C160.78462988 0.34163085 172.67734049 0.36861659 184.57004601 0.39832024 C188.15089713 0.40721418 191.73174696 0.41540187 195.31260324 0.42193103 C203.48730858 0.4369363 211.66184664 0.46137148 219.83647728 0.50097084 C222.30418593 0.5115242 224.77191091 0.51887174 227.23963928 0.52262115 C263.3016083 0.58451348 263.3016083 0.58451348 276.84623718 5.60523987 C277.58865662 5.86764465 278.33107605 6.13004944 279.09599304 6.40040588 C289.00852085 10.01683274 297.34718401 15.07718979 305.40873718 21.85523987 C306.16026062 22.46109924 306.91178406 23.06695862 307.68608093 23.69117737 C323.99208896 37.34920119 332.99236653 58.01974199 335.40873718 78.85523987 C336.52123353 104.75311986 330.61150357 129.11217677 313.2454071 148.85401917 C298.80546233 164.5131088 278.91095651 176.07538603 257.40873718 177.85523987 C252.86965616 178.00164675 248.33292946 177.99877075 243.79177856 177.99568176 C242.40963075 177.99826886 241.02748369 178.00128297 239.64533764 178.00468516 C235.86143905 178.01271801 232.07755947 178.01454265 228.29365337 178.01528263 C224.20689253 178.01713969 220.12014141 178.02469029 216.03338623 178.03141785 C207.10338689 178.04497533 198.17339205 178.05102187 189.24338412 178.0554285 C183.66246938 178.05819534 178.08155636 178.0624335 172.50064278 178.06693268 C157.03442589 178.07912204 141.56821038 178.08942196 126.10198879 178.09280777 C125.11292581 178.09302734 124.12386283 178.0932469 123.10482824 178.09347312 C122.11346241 178.0936914 121.12209657 178.09390968 120.10068935 178.09413457 C118.09196246 178.09457803 116.08323556 178.09502459 114.07450867 178.09547424 C113.07812077 178.09569567 112.08173288 178.0959171 111.05515141 178.09614524 C94.91885604 178.10009124 78.78260588 178.1175407 62.64632796 178.14083377 C46.06080847 178.16458114 29.47531163 178.17701116 12.88977486 178.17817569 C3.58515684 178.17909055 -5.71940225 178.18479523 -15.02400398 178.2029953 C-22.94865683 178.21844206 -30.87323254 178.22348986 -38.79789758 178.2152572 C-42.83622598 178.21136682 -46.87439926 178.2122008 -50.91270828 178.22631454 C-54.61966112 178.23915095 -58.32634383 178.23777179 -62.03329682 178.22572383 C-63.98826664 178.22287416 -65.94324157 178.23462832 -67.89817339 178.24714589 C-79.64961996 178.18236151 -91.01958372 176.36386127 -101.90376282 171.79273987 C-102.53475891 171.53686096 -103.165755 171.28098206 -103.81587219 171.01734924 C-106.53836822 169.88467442 -108.48672073 168.95978196 -110.59126282 166.85523987 C-105.03379386 167.72982164 -99.90696216 169.83236351 -94.65376282 171.77125549 C-93.91899719 172.0374469 -93.18423157 172.30363831 -92.42720032 172.57789612 C-91.43019104 172.94539978 -91.43019104 172.94539978 -90.41304016 173.32032776 C-88.42796307 173.99610373 -88.42796307 173.99610373 -85.59126282 173.85523987 C-86.42528625 173.64770081 -87.25930969 173.44016174 -88.11860657 173.22633362 C-96.03739185 171.05841875 -101.57602021 168.42140739 -107.59126282 162.85523987 C-108.21645813 162.32027893 -108.84165344 161.78531799 -109.48579407 161.23414612 C-117.45026133 153.99845364 -122.10274406 144.25407845 -122.80610657 133.60133362 C-123.21833399 118.31594067 -118.20703088 107.7742808 -107.78657532 96.71559143 C-103.29645778 92.08201596 -98.69590576 87.56197182 -94.09126282 83.04273987 C-92.50835867 81.47135306 -90.92632104 79.89909286 -89.34516907 78.32594299 C-87.81338966 76.80758497 -86.28086291 75.28998044 -84.74751282 73.77320862 C-84.04831726 73.08139999 -83.3491217 72.38959137 -82.6287384 71.67681885 C-79.35261477 68.46305586 -76.03837166 65.33905645 -72.56343079 62.34059143 C-68.47212692 58.80252342 -64.6701356 55.02788528 -60.88032532 51.17164612 C-59.45727578 49.73597281 -58.03409505 48.30042953 -56.61079407 46.86500549 C-54.39682689 44.62605388 -52.18451038 42.38551367 -49.9745636 40.14259338 C-47.82245479 37.96046944 -45.66432082 35.78445339 -43.50532532 33.60914612 C-42.84078339 32.93114456 -42.17624146 32.25314301 -41.49156189 31.55459595 C-40.87687042 30.93652573 -40.26217896 30.31845551 -39.62886047 29.68165588 C-39.08895477 29.13429276 -38.54904907 28.58692963 -37.99278259 28.02297974 C-36.59126282 26.85523987 -36.59126282 26.85523987 -34.59126282 26.85523987 C-34.3373175 26.26227112 -34.08337219 25.66930237 -33.82173157 25.05836487 C-32.45499908 22.61126288 -31.073833 21.36176033 -28.90376282 19.60523987 C-25.4155955 16.65855701 -22.4377619 13.55335825 -19.52485657 10.04273987 C-18.88677063 9.32086487 -18.24868469 8.59898987 -17.59126282 7.85523987 C-16.92413724 7.00641089 -16.92413724 7.00641089 -16.24353439 6.14043385 C-11.28386301 0.38873504 -7.37908266 -0.14340647 0 0 Z " fill="#1186B9" transform="translate(439.5912628173828,593.1447601318359)"/>
<path d="M0 0 C1.0550044 -0.00739211 2.11000881 -0.01478421 3.19698304 -0.02240032 C6.72711545 -0.0385945 10.25497493 -0.00481476 13.78495789 0.02882385 C16.31833214 0.02752393 18.85170639 0.0231699 21.3850708 0.01599121 C27.55139172 0.00652889 33.7168713 0.02941471 39.88306186 0.06700479 C47.07823831 0.10933361 54.27328809 0.11357245 61.46857025 0.11602414 C74.32320416 0.1215877 87.17753011 0.15984551 100.0320282 0.21730042 C112.47182521 0.27285773 124.91144638 0.30838063 137.35136414 0.31983948 C138.11596666 0.32054774 138.88056919 0.32125599 139.6683415 0.32198571 C141.20892523 0.32339508 142.74950897 0.32479948 144.29009272 0.32619888 C145.43037144 0.32723492 145.43037144 0.32723492 146.5936861 0.32829189 C147.35209367 0.32897032 148.11050123 0.32964875 148.89189084 0.33034774 C160.78462988 0.34163085 172.67734049 0.36861659 184.57004601 0.39832024 C188.15089713 0.40721418 191.73174696 0.41540187 195.31260324 0.42193103 C203.48730858 0.4369363 211.66184664 0.46137148 219.83647728 0.50097084 C222.30418593 0.5115242 224.77191091 0.51887174 227.23963928 0.52262115 C263.292537 0.58449791 263.292537 0.58449791 276.84623718 5.60523987 C277.95116516 5.99340881 277.95116516 5.99340881 279.07841492 6.38941956 C295.08246727 12.20270005 295.08246727 12.20270005 297.40873718 16.85523987 C293.67453714 15.41900908 290.12355551 13.74317864 286.53373718 11.98023987 C273.69167313 6.01159874 260.55630645 3.72467003 246.45320129 3.66096497 C244.81216692 3.64804149 244.81216692 3.64804149 243.13798034 3.63485694 C239.47710962 3.60748303 235.81623682 3.58721244 232.15531921 3.56715393 C229.52852703 3.5494256 226.90173669 3.53142359 224.27494812 3.51316833 C200.34083334 3.35234741 176.40608468 3.26967662 152.47154427 3.20317459 C149.27205992 3.19412687 146.07257609 3.18491707 142.87309265 3.17555237 C141.68034447 3.1720725 141.68034447 3.1720725 140.46350037 3.16852233 C127.5754672 3.12972844 114.68802876 3.04915954 101.80031444 2.9524236 C88.55745059 2.85384766 75.31489573 2.79699442 62.07167327 2.77959609 C54.64024931 2.76869992 47.20991394 2.73902139 39.77885818 2.66164398 C32.79016666 2.58889177 25.80327225 2.57194772 18.8142395 2.59276199 C16.25073915 2.59133281 13.68716911 2.57107239 11.12398911 2.53052139 C-2.1501326 1.58504178 -2.1501326 1.58504178 -13.98173904 6.21326447 C-16.26737249 8.99298399 -17.86903176 11.7090153 -19.59126282 14.85523987 C-23.51994838 19.05403185 -27.83644059 22.84206679 -32.13032532 26.66188049 C-35.11367355 29.35836831 -37.65874878 32.14481901 -40.19087219 35.28321838 C-42.39740424 37.7601814 -44.93521363 39.82568568 -47.45454407 41.97633362 C-51.18035687 45.2525968 -54.61637078 48.81705289 -58.09126282 52.35523987 C-59.51576838 53.8056927 -60.94283746 55.25363251 -62.37251282 56.69898987 C-62.99190735 57.32998596 -63.61130188 57.96098206 -64.24946594 58.61109924 C-66.23217281 60.51112442 -68.25249217 62.30972602 -70.32929993 64.10426331 C-74.71633657 67.91906674 -78.87046757 71.93829923 -83.00141907 76.02711487 C-83.77255539 76.79017944 -84.54369171 77.55324402 -85.3381958 78.33943176 C-86.95729609 79.94479236 -88.57491682 81.55164644 -90.19111633 83.15992737 C-91.8302077 84.78748156 -93.4737603 86.41055543 -95.1217804 88.02906799 C-111.21449959 102.45953131 -111.21449959 102.45953131 -118.59126282 121.85523987 C-118.96251282 122.61836487 -119.33376282 123.38148987 -119.71626282 124.16773987 C-121.11475502 128.46310879 -120.27010206 132.45267077 -119.59126282 136.85523987 C-119.43850891 137.99219299 -119.43850891 137.99219299 -119.28266907 139.15211487 C-117.64419308 148.67892373 -112.01201019 156.79978151 -104.59126282 162.85523987 C-100.43599537 165.80968482 -100.43599537 165.80968482 -95.59126282 166.85523987 C-95.09626282 167.84523987 -95.09626282 167.84523987 -94.59126282 168.85523987 C-74.28951417 177.33260289 -49.72610726 176.45826061 -28.16462123 176.40404534 C-24.36747117 176.3989989 -20.57041357 176.41730828 -16.77330017 176.4324646 C-10.2290495 176.45553707 -3.68490887 176.46453594 2.85938072 176.46335602 C12.32073697 176.46167146 21.7819485 176.48217544 31.24326579 176.50771132 C46.60188265 176.54857854 61.9604731 176.57205045 77.31913757 176.58424377 C92.21890291 176.59611079 107.11861868 176.61638124 122.01835632 176.64772034 C123.40114946 176.65062449 123.40114946 176.65062449 124.81187781 176.65358731 C129.43761714 176.6633534 134.0633561 176.67328223 138.6890949 176.68329191 C176.92895215 176.7658298 215.16880876 176.81999424 253.40873718 176.85523987 C253.40873718 177.18523987 253.40873718 177.51523987 253.40873718 177.85523987 C211.36923878 177.92396739 169.32974688 177.97679981 127.29020339 178.00843586 C122.32247172 178.01218779 117.35474017 178.01607078 112.38700867 178.02003479 C110.9035845 178.02121519 110.9035845 178.02121519 109.39019216 178.02241943 C93.39565542 178.03545889 77.40115116 178.05910467 61.40663367 178.08669826 C44.98409305 178.11479311 28.56156939 178.13142475 12.13900572 178.13750535 C2.01256305 178.14161334 -8.11378779 178.15456904 -18.24020218 178.17898927 C-25.19251585 178.19489686 -32.14478232 178.1996289 -39.09711284 178.195744 C-43.10298612 178.19383025 -47.10869938 178.19667937 -51.11454391 178.21285629 C-54.79220341 178.22759833 -58.46959731 178.22810103 -62.14726978 178.21793655 C-64.08671926 178.21609525 -66.02616625 178.22890516 -67.96556908 178.24248379 C-79.69101879 178.18344756 -91.04486356 176.35324428 -101.90376282 171.79273987 C-102.53475891 171.53686096 -103.165755 171.28098206 -103.81587219 171.01734924 C-106.53836822 169.88467442 -108.48672073 168.95978196 -110.59126282 166.85523987 C-105.03379386 167.72982164 -99.90696216 169.83236351 -94.65376282 171.77125549 C-93.91899719 172.0374469 -93.18423157 172.30363831 -92.42720032 172.57789612 C-91.43019104 172.94539978 -91.43019104 172.94539978 -90.41304016 173.32032776 C-88.42796307 173.99610373 -88.42796307 173.99610373 -85.59126282 173.85523987 C-86.42528625 173.64770081 -87.25930969 173.44016174 -88.11860657 173.22633362 C-96.03739185 171.05841875 -101.57602021 168.42140739 -107.59126282 162.85523987 C-108.21645813 162.32027893 -108.84165344 161.78531799 -109.48579407 161.23414612 C-117.45026133 153.99845364 -122.10274406 144.25407845 -122.80610657 133.60133362 C-123.21833399 118.31594067 -118.20703088 107.7742808 -107.78657532 96.71559143 C-103.29645778 92.08201596 -98.69590576 87.56197182 -94.09126282 83.04273987 C-92.50835867 81.47135306 -90.92632104 79.89909286 -89.34516907 78.32594299 C-87.81338966 76.80758497 -86.28086291 75.28998044 -84.74751282 73.77320862 C-84.04831726 73.08139999 -83.3491217 72.38959137 -82.6287384 71.67681885 C-79.35261477 68.46305586 -76.03837166 65.33905645 -72.56343079 62.34059143 C-68.47212692 58.80252342 -64.6701356 55.02788528 -60.88032532 51.17164612 C-59.45727578 49.73597281 -58.03409505 48.30042953 -56.61079407 46.86500549 C-54.39682689 44.62605388 -52.18451038 42.38551367 -49.9745636 40.14259338 C-47.82245479 37.96046944 -45.66432082 35.78445339 -43.50532532 33.60914612 C-42.84078339 32.93114456 -42.17624146 32.25314301 -41.49156189 31.55459595 C-40.87687042 30.93652573 -40.26217896 30.31845551 -39.62886047 29.68165588 C-39.08895477 29.13429276 -38.54904907 28.58692963 -37.99278259 28.02297974 C-36.59126282 26.85523987 -36.59126282 26.85523987 -34.59126282 26.85523987 C-34.3373175 26.26227112 -34.08337219 25.66930237 -33.82173157 25.05836487 C-32.45499908 22.61126288 -31.073833 21.36176033 -28.90376282 19.60523987 C-25.4155955 16.65855701 -22.4377619 13.55335825 -19.52485657 10.04273987 C-18.88677063 9.32086487 -18.24868469 8.59898987 -17.59126282 7.85523987 C-16.92413724 7.00641089 -16.92413724 7.00641089 -16.24353439 6.14043385 C-11.28386301 0.38873504 -7.37908266 -0.14340647 0 0 Z " fill="#173A7D" transform="translate(439.5912628173828,593.1447601318359)"/>
<path d="M0 0 C14.47427302 -0.07040227 28.9485191 -0.12293977 43.42292881 -0.15543652 C50.145211 -0.17083788 56.86738616 -0.19179677 63.58959961 -0.22631836 C70.08650271 -0.2591037 76.58329509 -0.27689328 83.08027458 -0.28463173 C85.54917072 -0.29014097 88.01806134 -0.3008984 90.48690987 -0.31719017 C111.17323703 -0.44817083 130.03144156 0.83853251 148.33203125 11.53515625 C151.07132548 13.11081964 151.07132548 13.11081964 154.453125 14.37109375 C169.80091099 21.41958137 179.88644107 38.93786556 186 54 C193.60292815 75.83973327 193.19561653 100.68750755 184 122 C181.94140625 124.7578125 181.94140625 124.7578125 180 127 C179.443125 127.928125 178.88625 128.85625 178.3125 129.8125 C177.879375 130.534375 177.44625 131.25625 177 132 C176.67 132 176.34 132 176 132 C176 129.69 176 127.38 176 125 C176.99 124.67 177.98 124.34 179 124 C180.02281518 121.90280128 180.02281518 121.90280128 180.6875 119.4375 C181.06455078 118.19806641 181.06455078 118.19806641 181.44921875 116.93359375 C181.72185547 115.97646484 181.72185547 115.97646484 182 115 C182.66 115 183.32 115 184 115 C183.9690625 113.39125 183.9690625 113.39125 183.9375 111.75 C184.00789692 107.52618488 184.89219989 104.38094777 186.0390625 100.328125 C187.16577628 95.78350294 187.38337899 91.41896074 187.375 86.75 C187.37483887 85.89680176 187.37467773 85.04360352 187.37451172 84.16455078 C187.25578145 67.99969611 187.25578145 67.99969611 181 54 C180.5358629 52.66136068 180.12584696 51.30355913 179.75 49.9375 C178.3038257 45.30674499 176.04075206 41.75694992 173.20703125 37.84765625 C172 36 172 36 172 34 C171.34 34 170.68 34 170 34 C168.59765625 32.3203125 168.59765625 32.3203125 167.0625 30.125 C165.10052062 27.32503965 163.90905857 25.93937238 161 24 C161 23.34 161 22.68 161 22 C160.01 22 159.02 22 158 22 C158 21.34 158 20.68 158 20 C157.05125 19.7525 156.1025 19.505 155.125 19.25 C152 18 152 18 151.0625 16 C150.05700585 13.55866622 150.05700585 13.55866622 146.375 12.75 C145.26125 12.5025 144.1475 12.255 143 12 C143 11.34 143 10.68 143 10 C142.49726562 9.8865625 141.99453125 9.773125 141.4765625 9.65625 C138.76835636 8.93861809 136.1253143 8.06325775 133.46582031 7.18457031 C127.31226053 5.16978965 121.53091138 3.4595551 115.015625 3.140625 C112.91199549 2.99386015 111.02745311 2.56622564 109 2 C109 2.66 109 3.32 109 4 C108.01 3.505 108.01 3.505 107 3 C107 2.67 107 2.34 107 2 C105.9544696 2.00222061 104.90893921 2.00444122 103.83172607 2.00672913 C93.88984445 2.02716297 83.94796719 2.04206836 74.00606918 2.05181217 C68.8971035 2.05699023 63.78815501 2.06399341 58.67919922 2.07543945 C53.73192429 2.08645158 48.78466571 2.09231486 43.83737946 2.09487724 C41.9671325 2.09669898 40.09688625 2.10025455 38.22664642 2.10573006 C25.45196902 2.14158027 12.75270923 1.75492709 0 1 C0 0.67 0 0.34 0 0 Z " fill="#03B89D" transform="translate(584,596)"/>
<path d="M0 0 C14.47427302 -0.07040227 28.9485191 -0.12293977 43.42292881 -0.15543652 C50.145211 -0.17083788 56.86738616 -0.19179677 63.58959961 -0.22631836 C70.08650271 -0.2591037 76.58329509 -0.27689328 83.08027458 -0.28463173 C85.54917072 -0.29014097 88.01806134 -0.3008984 90.48690987 -0.31719017 C103.33445019 -0.39853759 115.54238922 -0.42049492 128 3 C129.60501122 3.43594231 129.60501122 3.43594231 131.2424469 3.88069153 C139.54515045 6.25606934 146.67993579 10.53865909 154 15 C152.68 15.33 151.36 15.66 150 16 C150 15.34 150 14.68 150 14 C147.69 13.34 145.38 12.68 143 12 C143 11.34 143 10.68 143 10 C142.49726562 9.8865625 141.99453125 9.773125 141.4765625 9.65625 C138.76835636 8.93861809 136.1253143 8.06325775 133.46582031 7.18457031 C127.31226053 5.16978965 121.53091138 3.4595551 115.015625 3.140625 C112.91199549 2.99386015 111.02745311 2.56622564 109 2 C109 2.66 109 3.32 109 4 C108.01 3.505 108.01 3.505 107 3 C107 2.67 107 2.34 107 2 C105.9544696 2.00222061 104.90893921 2.00444122 103.83172607 2.00672913 C93.88984445 2.02716297 83.94796719 2.04206836 74.00606918 2.05181217 C68.8971035 2.05699023 63.78815501 2.06399341 58.67919922 2.07543945 C53.73192429 2.08645158 48.78466571 2.09231486 43.83737946 2.09487724 C41.9671325 2.09669898 40.09688625 2.10025455 38.22664642 2.10573006 C25.45196902 2.14158027 12.75270923 1.75492709 0 1 C0 0.67 0 0.34 0 0 Z " fill="#00D9C7" transform="translate(584,596)"/>
<path d="M0 0 C0.99 0.66 1.98 1.32 3 2 C2.42121094 2.23074219 1.84242188 2.46148438 1.24609375 2.69921875 C-1.5637803 4.32650233 -2.98137981 6.22887195 -4.9375 8.8125 C-9.8077285 15.21254183 -15.55037414 20.47913994 -21.5390625 25.80664062 C-24.52249415 28.50320385 -27.06760448 31.28978843 -29.59985352 34.42822266 C-31.80493499 36.90360444 -34.34114229 38.96749162 -36.85888672 41.11669922 C-40.6078086 44.41421158 -44.06542001 48.00212444 -47.5625 51.5625 C-52.53356248 56.62305055 -57.54414795 61.46182083 -63 66 C-63.66 65.67 -64.32 65.34 -65 65 C-59.48939605 59.43884636 -53.97109214 53.88542222 -48.44726562 48.33740234 C-46.56695066 46.44813156 -44.68962782 44.55601811 -42.81347656 42.66259766 C-40.12249981 39.94746747 -37.42521238 37.23875101 -34.7265625 34.53125 C-33.88380768 33.67817261 -33.04105286 32.82509521 -32.17276001 31.94616699 C-31.39210175 31.16535767 -30.61144348 30.38454834 -29.80712891 29.58007812 C-29.11873932 28.88724731 -28.43034973 28.1944165 -27.72109985 27.48059082 C-26 26 -26 26 -24 26 C-23.61908203 25.11054687 -23.61908203 25.11054687 -23.23046875 24.203125 C-21.86373626 21.75602301 -20.48257018 20.50652046 -18.3125 18.75 C-14.75487987 15.74464581 -11.74886443 12.54704744 -8.7421875 9 C-5.9890774 5.83947899 -3.00318574 2.92103172 0 0 Z " fill="#322DC3" transform="translate(429,594)"/>
<path d="M0 0 C1.32707977 -0.00956978 1.32707977 -0.00956978 2.68096924 -0.01933289 C3.64444275 -0.02044571 4.60791626 -0.02155853 5.60058594 -0.02270508 C6.58613464 -0.02603348 7.57168335 -0.02936188 8.58709717 -0.03279114 C10.67866549 -0.03786615 12.77024194 -0.04019929 14.86181641 -0.04003906 C18.05742868 -0.04221756 21.25269144 -0.06034513 24.44824219 -0.0793457 C26.47818892 -0.08228112 28.5081373 -0.08426492 30.53808594 -0.08520508 C31.49346252 -0.09239059 32.44883911 -0.09957611 33.4331665 -0.10697937 C37.99771243 -0.09132912 41.70035262 -0.04981967 45.83496094 2.14526367 C45.83496094 2.80526367 45.83496094 3.46526367 45.83496094 4.14526367 C40.22496094 4.14526367 34.61496094 4.14526367 28.83496094 4.14526367 C28.83496094 3.48526367 28.83496094 2.82526367 28.83496094 2.14526367 C27.06446404 2.09115681 25.29349245 2.05242248 23.52246094 2.02026367 C22.53632813 1.99706055 21.55019531 1.97385742 20.53417969 1.94995117 C17.61089567 1.93843728 17.61089567 1.93843728 14.83496094 4.14526367 C12.65844727 4.37231445 12.65844727 4.37231445 10.16699219 4.34057617 C8.82797852 4.3309082 8.82797852 4.3309082 7.46191406 4.32104492 C6.06875977 4.2959082 6.06875977 4.2959082 4.64746094 4.27026367 C3.70708984 4.26124023 2.76671875 4.2522168 1.79785156 4.24291992 C-0.52336874 4.21935423 -2.8440755 4.18645483 -5.16503906 4.14526367 C-5.16503906 -0.38437658 -4.08534034 0.01991066 0 0 Z " fill="#176ABB" transform="translate(433.1650390625,595.854736328125)"/>
<path d="M0 0 C4.41743367 1.42940724 7.468106 3.81710915 10.8125 6.9375 C11.33875977 7.42839111 11.86501953 7.91928223 12.40722656 8.42504883 C23.51562882 19.05616346 35.04994568 36.52248529 36.16796875 52.3828125 C36.18428549 54.2559742 36.10390826 56.12965135 36 58 C35.67 58 35.34 58 35 58 C34.8040625 56.9584375 34.608125 55.916875 34.40625 54.84375 C32.01398211 43.07058201 28.19942822 30.17713782 20 21 C19.01 20.67 18.02 20.34 17 20 C15.5 18.22265625 15.5 18.22265625 14 16.0625 C12.05598404 13.2730396 10.89822675 11.93215117 8 10 C8 9.34 8 8.68 8 8 C7.01 8 6.02 8 5 8 C5 7.34 5 6.68 5 6 C4.030625 5.71125 3.06125 5.4225 2.0625 5.125 C-1 4 -1 4 -2 2 C-1.34 1.34 -0.68 0.68 0 0 Z " fill="#06A28B" transform="translate(737,610)"/>
<path d="M0 0 C5.55746895 0.87458177 10.68430066 2.97712364 15.9375 4.91601562 C16.67226563 5.18220703 17.40703125 5.44839844 18.1640625 5.72265625 C18.82873535 5.96765869 19.4934082 6.21266113 20.17822266 6.46508789 C22.16329974 7.14086386 22.16329974 7.14086386 25 7 C23.64455078 6.61908203 23.64455078 6.61908203 22.26171875 6.23046875 C21.08222656 5.88628906 19.90273438 5.54210937 18.6875 5.1875 C16.92986328 4.68283203 16.92986328 4.68283203 15.13671875 4.16796875 C12.23926019 3.08908941 10.88536848 2.37542816 9 0 C10.98 0 12.96 0 15 0 C15.33 0.66 15.66 1.32 16 2 C23.55757185 5.27329723 32.04513592 6.07586988 40.125 7.1875 C41.36765625 7.36474609 42.6103125 7.54199219 43.890625 7.72460938 C46.92618501 8.15659291 49.96254878 8.58155929 53 9 C53 9.33 53 9.66 53 10 C34.4301491 11.53205965 19.00622896 10.08640556 2 2 C1.34 1.34 0.68 0.68 0 0 Z " fill="#401DB0" transform="translate(329,760)"/>
<path d="M0 0 C4.14092782 3.75204069 6.62921122 7.42917747 9.0625 12.4375 C9.40611572 13.13327148 9.74973145 13.82904297 10.10375977 14.54589844 C13.26531821 21.16154387 15.29369337 27.86628866 17 35 C17.18030762 35.59192139 17.36061523 36.18384277 17.54638672 36.79370117 C18.59900144 41.91344242 17.8844434 47.36912963 17.6875 52.5625 C17.65205078 53.80708984 17.61660156 55.05167969 17.58007812 56.33398438 C17.53689453 57.52443359 17.49371094 58.71488281 17.44921875 59.94140625 C17.41143311 61.03138916 17.37364746 62.12137207 17.3347168 63.24438477 C17 66 17 66 15 69 C15.02094727 68.28682617 15.04189453 67.57365234 15.06347656 66.83886719 C15.45200205 51.51915961 15.37515019 36.80205922 11 22 C10.34 21.34 9.68 20.68 9 20 C8.5358629 18.66136068 8.12584696 17.30355913 7.75 15.9375 C6.3038257 11.30674499 4.04075206 7.75694992 1.20703125 3.84765625 C0 2 0 2 0 0 Z " fill="#01F2CE" transform="translate(756,630)"/>
<path d="M0 0 C1.18613892 0.00785522 1.18613892 0.00785522 2.39624023 0.01586914 C3.67724609 0.02070312 3.67724609 0.02070312 4.98413086 0.02563477 C5.88196289 0.03401367 6.77979492 0.04239258 7.70483398 0.05102539 C8.6065332 0.05553711 9.50823242 0.06004883 10.43725586 0.06469727 C12.67234712 0.07652315 14.90730835 0.09300319 17.14233398 0.11352539 C17.47233398 1.10352539 17.80233398 2.09352539 18.14233398 3.11352539 C17.14233398 4.11352539 17.14233398 4.11352539 15.19287109 4.22705078 C14.36021729 4.22181396 13.52756348 4.21657715 12.66967773 4.21118164 C11.77055664 4.20795898 10.87143555 4.20473633 9.94506836 4.20141602 C8.99954102 4.19303711 8.05401367 4.1846582 7.07983398 4.17602539 C6.13043945 4.17151367 5.18104492 4.16700195 4.20288086 4.16235352 C1.84930333 4.15052649 -0.50415079 4.13404564 -2.85766602 4.11352539 C-2.85766602 0.17463723 -2.85766602 0.17463723 0 0 Z " fill="#2153BD" transform="translate(430.857666015625,595.886474609375)"/>
<path d="M0 0 C0.99 0.66 1.98 1.32 3 2 C2.42121094 2.23074219 1.84242188 2.46148438 1.24609375 2.69921875 C-1.5637803 4.32650233 -2.98137981 6.22887195 -4.9375 8.8125 C-9.73590932 14.97429499 -14.58248112 19.59582037 -21 24 C-19.61431787 20.9089287 -17.99224396 18.70165043 -15.6640625 16.25 C-15.01179688 15.5590625 -14.35953125 14.868125 -13.6875 14.15625 C-13.006875 13.4446875 -12.32625 12.733125 -11.625 12 C-10.95210938 11.2884375 -10.27921875 10.576875 -9.5859375 9.84375 C-6.43399178 6.51807499 -3.26533799 3.21510202 0 0 Z " fill="#2A35BC" transform="translate(429,594)"/>
<path d="M0 0 C0.66 0 1.32 0 2 0 C1.43171668 5.94592731 -2.02660201 8.3049776 -6.34375 12.0390625 C-9.62217104 14.45930862 -12.00976292 15.39279001 -16 16 C-15.34 14.68 -14.68 13.36 -14 12 C-13.34 12 -12.68 12 -12 12 C-10.49985609 10.66710346 -10.49985609 10.66710346 -9 9 C-7.03696156 6.95516829 -5.40663188 5.60442126 -3 4 C-2.34 3.01 -1.68 2.02 -1 1 C-0.67 0.67 -0.34 0.34 0 0 Z " fill="#03C3AB" transform="translate(750,739)"/>
<path d="M0 0 C0.87398438 0.48919922 0.87398438 0.48919922 1.765625 0.98828125 C10.39855206 5.58979426 19.30918605 7.89877114 29 9 C29 9.33 29 9.66 29 10 C18.9178029 10.59307042 9.26401995 7.81459645 0 4 C0 2.68 0 1.36 0 0 Z " fill="#8F20EA" transform="translate(336,759)"/>
<path d="M0 0 C0.66 0.33 1.32 0.66 2 1 C-2.39502254 7.72987826 -7.56575247 13.60574445 -15 17 C-13.67281894 13.96179631 -12.35354473 12.2222523 -9.75 10.1875 C-6.03399364 7.14146544 -3.01265733 3.7299567 0 0 Z " fill="#791DCF" transform="translate(358,407)"/>
<path d="M0 0 C0 0.99 0 1.98 0 3 C-1.96185416 4.71140469 -3.96302383 6.37873325 -6 8 C-6.33 8.66 -6.66 9.32 -7 10 C-7.66 10 -8.32 10 -9 10 C-9.66 11.32 -10.32 12.64 -11 14 C-11.99 14 -12.98 14 -14 14 C-10.47387028 8.84834949 -7.3853302 5.18224058 -2 2 C-1.34 1.34 -0.68 0.68 0 0 Z " fill="#761ED0" transform="translate(469,553)"/>
<path d="M0 0 C-0.50603992 2.16874252 -0.99983813 3.99967627 -2 6 C-2.66 6 -3.32 6 -4 6 C-4.33 6.99 -4.66 7.98 -5 9 C-6.5625 10.6875 -6.5625 10.6875 -8 12 C-8.66 11.67 -9.32 11.34 -10 11 C-9.67 10.01 -9.34 9.02 -9 8 C-8.01 7.67 -7.02 7.34 -6 7 C-5.814375 5.5459375 -5.814375 5.5459375 -5.625 4.0625 C-5.41875 3.051875 -5.2125 2.04125 -5 1 C-3 0 -3 0 0 0 Z " fill="#8C1CE2" transform="translate(493,528)"/>
<path d="M0 0 C0.66 0.33 1.32 0.66 2 1 C-2.62 5.95 -7.24 10.9 -12 16 C-12 12.53867696 -11.64823482 12.25491372 -9.375 9.86328125 C-8.83359375 9.28642578 -8.2921875 8.70957031 -7.734375 8.11523438 C-7.16203125 7.52033203 -6.5896875 6.92542969 -6 6.3125 C-5.42765625 5.70599609 -4.8553125 5.09949219 -4.265625 4.47460938 C-2.8503661 2.97679371 -1.42602723 1.4875671 0 0 Z " fill="#B01FFD" transform="translate(310,458)"/>
<path d="M0 0 C0.66 0.66 1.32 1.32 2 2 C-8.37357631 8.70387244 -8.37357631 8.70387244 -14 9 C-13.34 8.67 -12.68 8.34 -12 8 C-12 7.34 -12 6.68 -12 6 C-10.948125 5.7525 -9.89625 5.505 -8.8125 5.25 C-5.1866459 4.23299214 -2.80089228 2.54626571 0 0 Z " fill="#01DABF" transform="translate(732,754)"/>
<path d="M0 0 C4.41889613 1.35021826 6.34345343 3.26115668 9 7 C8.38125 6.67 7.7625 6.34 7.125 6 C5.08981656 4.85806765 5.08981656 4.85806765 3 5 C0.9375 4.625 0.9375 4.625 -1 4 C-1.33 3.34 -1.66 2.68 -2 2 C-1.34 1.34 -0.68 0.68 0 0 Z " fill="#04AF99" transform="translate(737,610)"/>
<path d="M0 0 C7.625 1.875 7.625 1.875 11 3 C11 3.99 11 4.98 11 6 C6.14922412 4.88059018 3.222107 3.8665284 0 0 Z " fill="#AD1FFB" transform="translate(325,756)"/>
<path d="M0 0 C3.81684226 1.55500981 6.19195732 4.03595495 9 7 C8.01 7 7.02 7 6 7 C6 6.34 6 5.68 6 5 C5.01 5 4.02 5 3 5 C3 4.34 3 3.68 3 3 C2.34 3 1.68 3 1 3 C0.67 2.01 0.34 1.02 0 0 Z " fill="#00EBC9" transform="translate(739,613)"/>
<path d="M0 0 C0.66 0.33 1.32 0.66 2 1 C1.21654285 2.17219543 0.42297164 3.33763668 -0.375 4.5 C-0.81585938 5.1496875 -1.25671875 5.799375 -1.7109375 6.46875 C-2.13632812 6.9740625 -2.56171875 7.479375 -3 8 C-3.66 8 -4.32 8 -5 8 C-5 5 -5 5 -2.5 2.3125 C-1.675 1.549375 -0.85 0.78625 0 0 Z " fill="#861FD8" transform="translate(358,407)"/>
<path d="" fill="#315B4B" transform="translate(0,0)"/>
<path d="" fill="#393A4F" transform="translate(0,0)"/>
<path d="" fill="#3B40B4" transform="translate(0,0)"/>
<path d="" fill="#433AB7" transform="translate(0,0)"/>
<path d="" fill="#5532BD" transform="translate(0,0)"/>
<path d="" fill="#10C5AE" transform="translate(0,0)"/>
<path d="" fill="#0EC5A8" transform="translate(0,0)"/>
<path d="" fill="#7F30D4" transform="translate(0,0)"/>
<path d="" fill="#8530D7" transform="translate(0,0)"/>
<path d="" fill="#862FD8" transform="translate(0,0)"/>
<path d="" fill="#8B33DC" transform="translate(0,0)"/>
<path d="" fill="#12D3B0" transform="translate(0,0)"/>
<path d="" fill="#9433E4" transform="translate(0,0)"/>
<path d="" fill="#9231E3" transform="translate(0,0)"/>
<path d="" fill="#9934E7" transform="translate(0,0)"/>
<path d="" fill="#10D3B5" transform="translate(0,0)"/>
<path d="" fill="#9A35E7" transform="translate(0,0)"/>
<path d="" fill="#A036E9" transform="translate(0,0)"/>
<path d="" fill="#11D5BA" transform="translate(0,0)"/>
<path d="" fill="#11DABE" transform="translate(0,0)"/>
<path d="" fill="#14D3B1" transform="translate(0,0)"/>
<path d="" fill="#12D1B5" transform="translate(0,0)"/>
<path d="" fill="#A432ED" transform="translate(0,0)"/>
<path d="" fill="#3197C2" transform="translate(0,0)"/>
<path d="" fill="#4272C3" transform="translate(0,0)"/>
<path d="" fill="#A333F0" transform="translate(0,0)"/>
<path d="" fill="#9B40EB" transform="translate(0,0)"/>
<path d="" fill="#9A39E8" transform="translate(0,0)"/>
<path d="" fill="#9E3EE8" transform="translate(0,0)"/>
<path d="" fill="#9E3AED" transform="translate(0,0)"/>
<path d="" fill="#A733F3" transform="translate(0,0)"/>
<path d="" fill="#A32FF1" transform="translate(0,0)"/>
<path d="" fill="#A432F1" transform="translate(0,0)"/>
<path d="" fill="#A533F4" transform="translate(0,0)"/>
<path d="" fill="#A130EC" transform="translate(0,0)"/>
<path d="" fill="#A435F4" transform="translate(0,0)"/>
<path d="" fill="#A732F4" transform="translate(0,0)"/>
<path d="" fill="#A532F1" transform="translate(0,0)"/>
<path d="" fill="#A430F5" transform="translate(0,0)"/>
<path d="" fill="#A432F1" transform="translate(0,0)"/>
<path d="" fill="#A736F4" transform="translate(0,0)"/>
<path d="" fill="#A531F1" transform="translate(0,0)"/>
<path d="" fill="#A733F6" transform="translate(0,0)"/>
<path d="" fill="#A334F0" transform="translate(0,0)"/>
<path d="" fill="#A633F5" transform="translate(0,0)"/>
<path d="" fill="#A635EF" transform="translate(0,0)"/>
<path d="" fill="#A833F3" transform="translate(0,0)"/>
<path d="" fill="#A937F2" transform="translate(0,0)"/>
<path d="" fill="#A638F4" transform="translate(0,0)"/>
<path d="" fill="#A237ED" transform="translate(0,0)"/>
<path d="" fill="#9F36E8" transform="translate(0,0)"/>
</svg>
