<?xml version="1.0" encoding="UTF-8"?>
<svg version="1.1" xmlns="http://www.w3.org/2000/svg" width="500" height="500">
<path d="M0 0 C4.99633595 1.96209546 8.64512514 4.9544723 11.5 9.5 C13.8425335 14.96591151 14.12651549 20.04580975 14.14526367 25.94824219 C14.14862228 26.61580536 14.1519809 27.28336853 14.15544128 27.97116089 C14.16488611 30.1630849 14.1668913 32.35493195 14.16796875 34.546875 C14.17118644 36.08376089 14.1745509 37.62064648 14.17805481 39.15753174 C14.18403037 42.37521066 14.18589639 45.5928628 14.18530273 48.81054688 C14.18520135 52.9100894 14.19883649 57.00945783 14.21607494 61.1089592 C14.22725925 64.28335338 14.22921996 67.45770637 14.22869301 70.63211823 C14.22986411 72.14221037 14.23423634 73.65230389 14.24202538 75.1623764 C14.34132814 96.40705051 8.50986237 107.12497765 -6 122 C-6.5892627 122.60972656 -7.17852539 123.21945313 -7.78564453 123.84765625 C-9.55747621 125.67725986 -11.33863029 127.49709583 -13.125 129.3125 C-13.68131104 129.88202393 -14.23762207 130.45154785 -14.81079102 131.03833008 C-16.1685343 132.39860371 -17.57990347 133.70495675 -19 135 C-19.66 135 -20.32 135 -21 135 C-21 135.66 -21 136.32 -21 137 C-22.10497417 138.17403506 -23.22235731 139.33796193 -24.38671875 140.453125 C-26.23376148 142.22413934 -28.01907965 144.04974378 -29.8125 145.875 C-33.14559135 149.2207167 -36.61527764 152.33163161 -40.23828125 155.359375 C-42.09619445 156.98537608 -42.09619445 156.98537608 -43.60546875 159.203125 C-44.06566406 159.79609375 -44.52585937 160.3890625 -45 161 C-45.66 161 -46.32 161 -47 161 C-47 161.66 -47 162.32 -47 163 C-46.38930349 163.00238835 -45.77860699 163.00477671 -45.14940453 163.00723743 C-30.23151004 163.06659225 -15.31376384 163.14227148 -0.39604759 163.23571491 C6.8183101 163.28051888 14.03262012 163.31996817 21.24707031 163.34643555 C27.54139616 163.3695413 33.83556918 163.40307718 40.1297735 163.44870156 C43.4569361 163.47246626 46.78381201 163.48974664 50.11107254 163.49761391 C84.00401872 163.58581713 84.00401872 163.58581713 96 171 C96.598125 171.35449219 97.19625 171.70898438 97.8125 172.07421875 C99.5 173.125 99.5 173.125 102 175 C102 175.66 102 176.32 102 177 C102.66 177 103.32 177 104 177 C104 177.66 104 178.32 104 179 C104.66 179 105.32 179 106 179 C107.65625 181.37890625 107.65625 181.37890625 109.5 184.5625 C110.1084375 185.59503906 110.716875 186.62757813 111.34375 187.69140625 C114.53255716 194.0614998 115.36440113 199.81326142 115.3125 206.8125 C115.30686035 207.60785156 115.3012207 208.40320313 115.29541016 209.22265625 C115.04367604 221.42553001 110.6429052 231.27091571 102.3125 240.25 C90.63873885 251.2764589 77.92907 252.30154092 62.67675781 252.29052734 C61.0201894 252.29651824 59.36362377 252.30332507 57.70706177 252.31088257 C53.22338665 252.32849359 48.73978795 252.3332359 44.25608158 252.33451414 C41.44981411 252.33593918 38.64356585 252.34021548 35.83730316 252.34550858 C26.03279901 252.3639933 16.22834912 252.37218122 6.42382812 252.37060547 C-2.69206052 252.36940479 -11.80771213 252.39049663 -20.92354083 252.4220928 C-28.76927125 252.44831032 -36.61492452 252.45897046 -44.46069837 252.45769465 C-49.13803532 252.45718659 -53.8151615 252.46278316 -58.49245453 252.48405075 C-62.89537108 252.50352547 -67.29787781 252.50349503 -71.70080948 252.48901749 C-73.30833923 252.48693962 -74.91589526 252.49156868 -76.52338028 252.5037384 C-89.27985659 252.5939882 -100.52630604 250.81684497 -111 243 C-111.66644531 242.52046875 -112.33289063 242.0409375 -113.01953125 241.546875 C-122.78490852 233.85407302 -127.24926313 223.05314998 -129 211 C-130.03735128 202.25667093 -130.16331635 193.55725768 -130.16796875 184.76171875 C-130.17119302 183.30882232 -130.17455791 181.8559262 -130.17805481 180.4030304 C-130.18400267 177.37325286 -130.18589919 174.34350366 -130.18530273 171.3137207 C-130.18520128 167.4714211 -130.19885549 163.62930698 -130.21607494 159.7870512 C-130.22730651 156.79007669 -130.22921857 153.79314549 -130.22869301 150.79615211 C-130.22985633 149.38147149 -130.23418273 147.96678911 -130.24202538 146.55212975 C-130.35104239 124.86197687 -126.97037334 110.49590884 -111.6015625 94.953125 C-107.97341284 91.35317146 -104.30263722 87.79928072 -100.625 84.25 C-97.825376 81.51525999 -95.03069564 78.77556111 -92.23739624 76.03436279 C-90.50721053 74.34001437 -88.77234307 72.6504309 -87.03237915 70.96612549 C-85.86513809 69.83288849 -85.86513809 69.83288849 -84.67431641 68.67675781 C-83.98705475 68.0128302 -83.29979309 67.34890259 -82.59170532 66.66485596 C-80.91414037 65.0739837 -80.91414037 65.0739837 -80 63 C-79.34 63 -78.68 63 -78 63 C-78 62.34 -78 61.68 -78 61 C-77.34 61 -76.68 61 -76 61 C-76 60.34 -76 59.68 -76 59 C-75.34 59 -74.68 59 -74 59 C-74 58.34 -74 57.68 -74 57 C-73.34 57 -72.68 57 -72 57 C-72 56.34 -72 55.68 -72 55 C-69.625 52.375 -69.625 52.375 -67 50 C-66.34 50 -65.68 50 -65 50 C-64.34 48.68 -63.68 47.36 -63 46 C-62.34 46 -61.68 46 -61 46 C-60.34 44.68 -59.68 43.36 -59 42 C-58.34 42 -57.68 42 -57 42 C-56.67 41.01 -56.34 40.02 -56 39 C-54.0625 36.8125 -54.0625 36.8125 -52 35 C-51.34 35 -50.68 35 -50 35 C-50 34.34 -50 33.68 -50 33 C-49.34 33 -48.68 33 -48 33 C-48 32.34 -48 31.68 -48 31 C-47.34 31 -46.68 31 -46 31 C-45.505 29.515 -45.505 29.515 -45 28 C-44.34 28 -43.68 28 -43 28 C-43 27.34 -43 26.68 -43 26 C-42.34 26 -41.68 26 -41 26 C-41 25.34 -41 24.68 -41 24 C-40.34 24 -39.68 24 -39 24 C-39 23.34 -39 22.68 -39 22 C-38.34 22 -37.68 22 -37 22 C-37 21.34 -37 20.68 -37 20 C-36.34 20 -35.68 20 -35 20 C-35 19.34 -35 18.68 -35 18 C-34.34 18 -33.68 18 -33 18 C-33 17.34 -33 16.68 -33 16 C-32.34 16 -31.68 16 -31 16 C-31 15.34 -31 14.68 -31 14 C-30.34 14 -29.68 14 -29 14 C-29 13.34 -29 12.68 -29 12 C-28.34 12 -27.68 12 -27 12 C-26.7628125 11.41605469 -26.525625 10.83210937 -26.28125 10.23046875 C-24.72773553 7.5260274 -22.98987769 6.17586626 -20.5 4.3125 C-19.7059375 3.71050781 -18.911875 3.10851562 -18.09375 2.48828125 C-12.69191502 -1.35145593 -6.39203357 -0.71557749 0 0 Z " fill="#32DA8A" transform="translate(264,125)"/>
<path d="M0 0 C0.76461265 0.04816298 1.52922529 0.09632595 2.31700802 0.14594841 C6.76051754 0.44964599 11.12536992 0.9742461 15.53271484 1.63720703 C20.68120913 2.02368208 20.68120913 2.02368208 25.53271484 0.63720703 C27.40651089 0.56686934 29.28272586 0.55290483 31.15771484 0.57470703 C32.66205078 0.58824219 32.66205078 0.58824219 34.19677734 0.60205078 C35.35306641 0.61945313 35.35306641 0.61945313 36.53271484 0.63720703 C36.86271484 1.29720703 37.19271484 1.95720703 37.53271484 2.63720703 C38.25974609 2.59080078 38.98677734 2.54439453 39.73583984 2.49658203 C47.59974271 2.21428808 54.35022267 3.29594582 61.53271484 6.63720703 C61.86271484 7.29720703 62.19271484 7.95720703 62.53271484 8.63720703 C64.55734739 9.28933995 64.55734739 9.28933995 66.53271484 9.63720703 C66.53271484 10.29720703 66.53271484 10.95720703 66.53271484 11.63720703 C68.51271484 11.63720703 70.49271484 11.63720703 72.53271484 11.63720703 C73.53271484 14.63720703 73.53271484 14.63720703 73.53271484 17.63720703 C74.52271484 17.96720703 75.51271484 18.29720703 76.53271484 18.63720703 C77.72021484 21.69970703 77.72021484 21.69970703 78.53271484 24.63720703 C77.87271484 24.63720703 77.21271484 24.63720703 76.53271484 24.63720703 C76.53271484 25.29720703 76.53271484 25.95720703 76.53271484 26.63720703 C77.52271484 26.30720703 78.51271484 25.97720703 79.53271484 25.63720703 C79.53271484 26.62720703 79.53271484 27.61720703 79.53271484 28.63720703 C80.19271484 28.63720703 80.85271484 28.63720703 81.53271484 28.63720703 C85.94105946 40.76015472 83.4560977 54.01374229 78.53271484 65.63720703 C77.87271484 65.63720703 77.21271484 65.63720703 76.53271484 65.63720703 C76.53271484 66.62720703 76.53271484 67.61720703 76.53271484 68.63720703 C73.53271484 69.63720703 70.53271484 70.63720703 67.53271484 71.63720703 C67.09958984 72.75095703 66.66646484 73.86470703 66.22021484 75.01220703 C64.53271484 78.63720703 64.53271484 78.63720703 61.97021484 80.44970703 C58.27057443 81.72776463 54.65246386 82.53328785 50.80224609 83.20751953 C48.38008729 83.61351057 48.38008729 83.61351057 45.53271484 84.63720703 C36.81903884 85.89662028 28.02102861 85.77399852 19.23901367 85.75073242 C17.73002118 85.75044975 16.22102855 85.75060984 14.71203613 85.75117493 C10.64875524 85.7514598 6.58550436 85.7456135 2.52223039 85.73860097 C-1.73650568 85.73231551 -5.99524256 85.73175955 -10.25398254 85.73057556 C-18.30367215 85.72747748 -26.35334805 85.71928476 -34.40303165 85.70922607 C-43.57360614 85.69801746 -52.74418131 85.69254256 -61.91476095 85.68753064 C-80.7656101 85.67710076 -99.61644652 85.65953101 -118.46728516 85.63720703 C-118.46728516 84.97720703 -118.46728516 84.31720703 -118.46728516 83.63720703 C-119.78728516 83.63720703 -121.10728516 83.63720703 -122.46728516 83.63720703 C-122.46728516 82.97720703 -122.46728516 82.31720703 -122.46728516 81.63720703 C-123.30259766 81.35876953 -123.30259766 81.35876953 -124.15478516 81.07470703 C-128.79146029 78.19244951 -130.99811049 73.9167743 -132.84228516 68.88720703 C-133.83703376 63.68236078 -134.03012072 58.73961537 -132.46728516 53.63720703 C-129.87884944 49.85499165 -126.71853761 46.84781883 -123.46728516 43.63720703 C-119.15420545 39.29173943 -115.20290742 35.02288206 -112.10058594 29.73754883 C-87.83717541 -11.5713397 -41.77170229 -2.64765608 0 0 Z " fill="#20C887" transform="translate(293.46728515625,290.36279296875)"/>
<path d="M0 0 C0.625 1.8125 0.625 1.8125 1 4 C0.01 5.485 0.01 5.485 -1 7 C-1.09523098 9.05367686 -0.93639486 11.01423209 -0.77734375 13.0625 C-0.88755859 14.0215625 -0.88755859 14.0215625 -1 15 C-1.7383609 15.5454245 -1.7383609 15.5454245 -2.49163818 16.10186768 C-4.91019688 19.14539767 -4.39928724 22.58317901 -4.35644531 26.30761719 C-4.35848969 27.15512543 -4.36053406 28.00263367 -4.36264038 28.87582397 C-4.36565301 31.68305913 -4.34715064 34.48970941 -4.328125 37.296875 C-4.3250669 39.24879816 -4.32319117 41.20072351 -4.32244873 43.15264893 C-4.31784194 47.24833502 -4.30340621 51.34382491 -4.28125 55.43945312 C-4.25304227 60.67939457 -4.24204603 65.91918098 -4.2375679 71.15919113 C-4.23340082 75.19302918 -4.22357141 79.22683614 -4.21169281 83.26065826 C-4.20600915 85.19188439 -4.20124423 87.12311346 -4.19742584 89.05434418 C-4.1905163 91.7612169 -4.17686002 94.46797054 -4.16113281 97.17480469 C-4.16001495 97.96778961 -4.15889709 98.76077454 -4.15774536 99.57778931 C-4.12274313 104.14900616 -3.7495726 108.48902407 -3 113 C-2.34 113 -1.68 113 -1 113 C-1 114.32 -1 115.64 -1 117 C-0.34 117 0.32 117 1 117 C1.268125 117.928125 1.53625 118.85625 1.8125 119.8125 C2.73284187 122.95804508 2.73284187 122.95804508 4.625 124.625 C5.305625 125.305625 5.305625 125.305625 6 126 C6 127.32 6 128.64 6 130 C6.78375 129.95875 7.5675 129.9175 8.375 129.875 C11 130 11 130 13 132 C13 132.99 13 133.98 13 135 C17.17945665 136.72668252 17.17945665 136.72668252 21.5625 136.375 C24 136 24 136 26.8125 137.8125 C29 140 29 140 29 142 C30.32 142 31.64 142 33 142 C33 142.66 33 143.32 33 144 C52.7587797 143.89257456 72.51752188 143.77978046 92.27623463 143.66066074 C101.45131516 143.60547083 110.62639959 143.5520129 119.80151367 143.50268555 C127.80202688 143.45966865 135.8025131 143.41334779 143.80298442 143.36312145 C148.03597847 143.33666078 152.26896765 143.31181255 156.50199318 143.29092598 C160.49349255 143.27117881 164.48494124 143.24698432 168.47639465 143.21950912 C169.93435421 143.21023345 171.3923248 143.20252525 172.85030174 143.19658089 C188.18655928 143.36045325 188.18655928 143.36045325 203 140 C205.27627861 139.44696048 207.5602149 138.95125263 209.8515625 138.46484375 C211.91343308 138.01872993 213.95630201 137.52248388 216 137 C216.2475 135.88625 216.495 134.7725 216.75 133.625 C218 130 218 130 219.75 128.625 C222.48164222 127.86621049 225.19210988 127.38289411 228 127 C228 126.01 228 125.02 228 124 C228.66 124 229.32 124 230 124 C230.13277344 123.30003906 230.26554688 122.60007812 230.40234375 121.87890625 C230.80512884 119.93869311 231.25696187 118.00810055 231.75390625 116.08984375 C233.65754568 108.66840886 234.6877968 101.67157971 234 94 C233.67 93.67 233.34 93.34 233 93 C232.95919217 91.00041636 232.95745644 88.99954746 233 87 C232.34 87 231.68 87 231 87 C230.67 86.34 230.34 85.68 230 85 C229.34 85 228.68 85 228 85 C228 84.34 228 83.68 228 83 C228.66 83 229.32 83 230 83 C228.68 81.35 227.36 79.7 226 78 C226.33 77.67 226.66 77.34 227 77 C226.34 76.67 225.68 76.34 225 76 C224.375 72.9375 224.375 72.9375 224 70 C224.66 70 225.32 70 226 70 C226 70.66 226 71.32 226 72 C226.66 72 227.32 72 228 72 C229.65625 74.37890625 229.65625 74.37890625 231.5 77.5625 C232.1084375 78.59503906 232.716875 79.62757813 233.34375 80.69140625 C236.53255716 87.0614998 237.36440113 92.81326142 237.3125 99.8125 C237.30686035 100.60785156 237.3012207 101.40320313 237.29541016 102.22265625 C237.04367604 114.42553001 232.6429052 124.27091571 224.3125 133.25 C212.63873885 144.2764589 199.92907 145.30154092 184.67675781 145.29052734 C183.0201894 145.29651824 181.36362377 145.30332507 179.70706177 145.31088257 C175.22338665 145.32849359 170.73978795 145.3332359 166.25608158 145.33451414 C163.44981411 145.33593918 160.64356585 145.34021548 157.83730316 145.34550858 C148.03279901 145.3639933 138.22834912 145.37218122 128.42382812 145.37060547 C119.30793948 145.36940479 110.19228787 145.39049663 101.07645917 145.4220928 C93.23072875 145.44831032 85.38507548 145.45897046 77.53930163 145.45769465 C72.86196468 145.45718659 68.1848385 145.46278316 63.50754547 145.48405075 C59.10462892 145.50352547 54.70212219 145.50349503 50.29919052 145.48901749 C48.69166077 145.48693962 47.08410474 145.49156868 45.47661972 145.5037384 C32.72014341 145.5939882 21.47369396 143.81684497 11 136 C10.33355469 135.52046875 9.66710937 135.0409375 8.98046875 134.546875 C-0.78490852 126.85407302 -5.24926313 116.05314998 -7 104 C-8.03735128 95.25667093 -8.16331635 86.55725768 -8.16796875 77.76171875 C-8.17119302 76.30882232 -8.17455791 74.8559262 -8.17805481 73.4030304 C-8.18400267 70.37325286 -8.18589919 67.34350366 -8.18530273 64.3137207 C-8.18520128 60.4714211 -8.19885549 56.62930698 -8.21607494 52.7870512 C-8.22730651 49.79007669 -8.22921857 46.79314549 -8.22869301 43.79615211 C-8.22985633 42.38147149 -8.23418273 40.96678911 -8.24202538 39.55212975 C-8.36586395 14.91306182 -8.36586395 14.91306182 -2.875 5.125 C-2.06675781 3.64386719 -2.06675781 3.64386719 -1.2421875 2.1328125 C-0.62730469 1.07707031 -0.62730469 1.07707031 0 0 Z " fill="#9ADBBF" transform="translate(142,232)"/>
<path d="M0 0 C15.79554011 0.06074894 31.59090315 0.1383982 47.38625526 0.23571491 C54.72168152 0.28052275 62.05706085 0.3199712 69.39257812 0.34643555 C75.79237794 0.36953811 82.19202736 0.40307058 88.59170759 0.44870156 C91.97472065 0.47247017 95.35758629 0.49130524 98.74068069 0.49761391 C133.00316552 0.5852898 133.00316552 0.5852898 145 8 C145.598125 8.35449219 146.19625 8.70898438 146.8125 9.07421875 C148.5 10.125 148.5 10.125 151 12 C151 12.66 151 13.32 151 14 C148.69 14.33 146.38 14.66 144 15 C144 14.01 144 13.02 144 12 C143.01 11.67 142.02 11.34 141 11 C140.67 11.66 140.34 12.32 140 13 C140 11.68 140 10.36 140 9 C131.8390222 6.56907044 124.50922528 5.59264347 116 6 C115.505 4.515 115.505 4.515 115 3 C114.484375 3.165 113.96875 3.33 113.4375 3.5 C110.26847061 4.15005731 107.23316208 4 104 4 C102.865625 4.165 101.73125 4.33 100.5625 4.5 C90.75342466 5.87671233 90.75342466 5.87671233 87 4 C84.25471169 3.87741736 81.53313968 3.81428213 78.78662109 3.79467773 C77.51334206 3.77982834 77.51334206 3.77982834 76.21434021 3.76467896 C73.40073462 3.73302083 70.58711212 3.70828951 67.7734375 3.68359375 C65.82572992 3.66302794 63.87802684 3.64203157 61.93032837 3.62062073 C56.7978479 3.56536148 51.66532689 3.51596921 46.53277588 3.46777344 C41.29785545 3.41758652 36.06299406 3.36188581 30.828125 3.30664062 C20.55213374 3.19901194 10.27609127 3.09757744 0 3 C0 2.01 0 1.02 0 0 Z " fill="#86D9BA" transform="translate(215,288)"/>
<path d="M0 0 C0.66 0 1.32 0 2 0 C2 0.66 2 1.32 2 2 C2.66 2 3.32 2 4 2 C5.65625 4.37890625 5.65625 4.37890625 7.5 7.5625 C8.1084375 8.59503906 8.716875 9.62757813 9.34375 10.69140625 C12.53255716 17.0614998 13.36440113 22.81326142 13.3125 29.8125 C13.30404053 31.00552734 13.30404053 31.00552734 13.29541016 32.22265625 C13.04367604 44.42553001 8.6429052 54.27091571 0.3125 63.25 C-8.57123242 71.6724617 -17.4686276 74.18402355 -29.3125 74.0625 C-30.14845703 74.05798828 -30.98441406 74.05347656 -31.84570312 74.04882812 C-33.89716649 74.03710548 -35.94859273 74.01917203 -38 74 C-38 73.67 -38 73.34 -38 73 C-37.27554687 72.95101562 -36.55109375 72.90203125 -35.8046875 72.8515625 C-30.5358529 72.44410596 -25.98129828 71.84091458 -21 70 C-18.72372139 69.44696048 -16.4397851 68.95125263 -14.1484375 68.46484375 C-12.08656692 68.01872993 -10.04369799 67.52248388 -8 67 C-7.7525 65.88625 -7.505 64.7725 -7.25 63.625 C-6 60 -6 60 -4.25 58.625 C-1.51835778 57.86621049 1.19210988 57.38289411 4 57 C4 56.01 4 55.02 4 54 C4.66 54 5.32 54 6 54 C6.13277344 53.30003906 6.26554687 52.60007812 6.40234375 51.87890625 C6.80512884 49.93869311 7.25696187 48.00810055 7.75390625 46.08984375 C9.65754568 38.66840886 10.6877968 31.67157971 10 24 C9.67 23.67 9.34 23.34 9 23 C8.95919217 21.00041636 8.95745644 18.99954746 9 17 C8.34 17 7.68 17 7 17 C6.505 16.01 6.505 16.01 6 15 C5.34 15 4.68 15 4 15 C4 14.34 4 13.68 4 13 C4.66 13 5.32 13 6 13 C4.68 11.35 3.36 9.7 2 8 C2.33 7.67 2.66 7.34 3 7 C2.34 6.67 1.68 6.34 1 6 C0.375 2.9375 0.375 2.9375 0 0 Z " fill="#65D89D" transform="translate(366,302)"/>
<path d="M0 0 C3.81862445 1.227415 5.21486414 3.56048114 7.16796875 6.953125 C9.12107591 11.75795201 9.12899978 16.82793131 9.14526367 21.94824219 C9.15030159 22.94958694 9.15030159 22.94958694 9.15544128 23.97116089 C9.16488611 26.1630849 9.1668913 28.35493195 9.16796875 30.546875 C9.17118644 32.08376089 9.1745509 33.62064648 9.17805481 35.15753174 C9.18403037 38.37521066 9.18589639 41.5928628 9.18530273 44.81054688 C9.18520135 48.9100894 9.19883649 53.00945783 9.21607494 57.1089592 C9.22725925 60.28335338 9.22921996 63.45770637 9.22869301 66.63211823 C9.22986411 68.14221037 9.23423634 69.65230389 9.24202538 71.1623764 C9.32187192 88.24461798 9.32187192 88.24461798 7 95 C6.01 95.99 6.01 95.99 5 97 C4.97301811 95.37509046 4.95361243 93.75005367 4.9375 92.125 C4.92589844 91.22007812 4.91429687 90.31515625 4.90234375 89.3828125 C5 87 5 87 6 85 C6.11251153 82.81207358 6.15937804 80.62067815 6.17700195 78.42993164 C6.18685875 77.41724213 6.18685875 77.41724213 6.19691467 76.38409424 C6.21666963 74.14278042 6.22832133 71.90153401 6.23828125 69.66015625 C6.24235678 68.89240812 6.2464323 68.12466 6.25063133 67.33364677 C6.2715115 63.26206608 6.28579904 59.19051917 6.29516602 55.11889648 C6.30617361 50.93621172 6.34050128 46.75406736 6.38033772 42.5715723 C6.40665258 39.33793741 6.41487142 36.10442763 6.41844749 32.87069511 C6.4232832 31.33069692 6.43480988 29.79070317 6.45348549 28.25081062 C6.57072778 17.93383276 5.89863275 8.84794912 0 0 Z " fill="#7FD1A1" transform="translate(269,129)"/>
<path d="M0 0 C0.99 0 1.98 0 3 0 C3.45375 0.969375 3.9075 1.93875 4.375 2.9375 C5.65786221 6.07079582 5.65786221 6.07079582 8 7 C8 8.32 8 9.64 8 11 C8.78375 10.95875 9.5675 10.9175 10.375 10.875 C13 11 13 11 15 13 C15 13.99 15 14.98 15 16 C19.17945665 17.72668252 19.17945665 17.72668252 23.5625 17.375 C26 17 26 17 28.8125 18.8125 C31 21 31 21 31 23 C32.32 23 33.64 23 35 23 C35 23.66 35 24.32 35 25 C23.8968942 24.62989647 14.91270307 19.65610108 6.9140625 12.09375 C0 4.53061224 0 4.53061224 0 0 Z " fill="#73D6AE" transform="translate(140,351)"/>
<path d="M0 0 C1.32 0.66 2.64 1.32 4 2 C3.69384548 4.85744215 3.09027701 5.91254415 1 7.9375 C-7.95501099 14.09407006 -14.52131899 16.17322246 -25.3125 16.0625 C-26.14845703 16.05798828 -26.98441406 16.05347656 -27.84570312 16.04882812 C-29.89716649 16.03710548 -31.94859273 16.01917203 -34 16 C-34 15.67 -34 15.34 -34 15 C-32.91332031 14.92652344 -32.91332031 14.92652344 -31.8046875 14.8515625 C-26.5358529 14.44410596 -21.98129828 13.84091458 -17 12 C-14.72372139 11.44696048 -12.4397851 10.95125263 -10.1484375 10.46484375 C-8.08656692 10.01872993 -6.04369799 9.52248388 -4 9 C-3.71125 7.88625 -3.4225 6.7725 -3.125 5.625 C-2 2 -2 2 0 0 Z " fill="#55D996" transform="translate(362,360)"/>
<path d="M0 0 C0.33 1.32 0.66 2.64 1 4 C0.01 4.33 -0.98 4.66 -2 5 C-2.12375 5.556875 -2.2475 6.11375 -2.375 6.6875 C-3.83829825 12.10170354 -8.71622508 15.73080335 -13 19 C-13.45375 19.515625 -13.9075 20.03125 -14.375 20.5625 C-16.91764006 22.81175852 -19.85496118 23.75385254 -23 25 C-21.43717018 21.23396131 -19.0936525 18.86360849 -16.2109375 16.015625 C-15.74765045 15.55516785 -15.2843634 15.09471069 -14.80703735 14.62030029 C-13.33434102 13.15874922 -11.85482597 11.70432832 -10.375 10.25 C-9.37193678 9.25697389 -8.36932743 8.26348911 -7.3671875 7.26953125 C-4.91669165 4.84102059 -2.4600333 2.41885325 0 0 Z " fill="#58D7A0" transform="translate(166,207)"/>
<path d="M0 0 C0.33 0 0.66 0 1 0 C1.04635898 9.82279553 1.08188735 19.645565 1.10362434 29.46844769 C1.11405748 34.02970433 1.12820815 38.59088607 1.15087891 43.15209961 C1.17262398 47.55466764 1.18457217 51.95716367 1.18975449 56.35978127 C1.19344725 58.03868557 1.20065828 59.71758597 1.21146011 61.39645958 C1.22599718 63.74966293 1.22797702 66.10256945 1.22705078 68.45581055 C1.23783661 69.49483017 1.23783661 69.49483017 1.24884033 70.55484009 C1.23214932 74.47878668 0.71857602 77.4637065 -1 81 C-1.33 81 -1.66 81 -2 81 C-2.02698189 79.37509046 -2.04638757 77.75005367 -2.0625 76.125 C-2.07410156 75.22007812 -2.08570313 74.31515625 -2.09765625 73.3828125 C-2 71 -2 71 -1 69 C-0.87913832 66.81525817 -0.8225238 64.62687 -0.79467773 62.43896484 C-0.78477814 61.76567642 -0.77487854 61.092388 -0.76467896 60.3986969 C-0.73304885 58.16947974 -0.70830066 55.94024126 -0.68359375 53.7109375 C-0.66302552 52.16679322 -0.64202908 50.62265459 -0.62062073 49.07852173 C-0.56538651 45.01135833 -0.51598322 40.94414401 -0.46777344 36.87689209 C-0.41756825 32.72777771 -0.36187707 28.57873741 -0.30664062 24.4296875 C-0.19904254 16.28652095 -0.09760126 8.14329248 0 0 Z " fill="#5DDB94" transform="translate(276,145)"/>
<path d="M0 0 C8.60890366 0.61492169 15.13645954 3.85234466 22 9 C22 9.66 22 10.32 22 11 C19.69 11.33 17.38 11.66 15 12 C15 11.01 15 10.02 15 9 C14.01 8.67 13.02 8.34 12 8 C11.67 8.66 11.34 9.32 11 10 C11 8.68 11 7.36 11 6 C8.36 5.34 5.72 4.68 3 4 C3.33 3.01 3.66 2.02 4 1 C2.68 0.67 1.36 0.34 0 0 Z " fill="#62DAA2" transform="translate(344,291)"/>
<path d="M0 0 C0.66 0 1.32 0 2 0 C1.46416884 4.05625936 -0.56223967 5.93584654 -3.40234375 8.765625 C-4.73749023 10.09980469 -4.73749023 10.09980469 -6.09960938 11.4609375 C-7.03611328 12.38132813 -7.97261719 13.30171875 -8.9375 14.25 C-9.88013349 15.19473794 -10.82219743 16.14004452 -11.76367188 17.0859375 C-18.73316782 24 -18.73316782 24 -21 24 C-21.33 24.66 -21.66 25.32 -22 26 C-21.4233308 22.39057049 -20.09864188 20.74266343 -17.5078125 18.21484375 C-16.80269531 17.51939453 -16.09757813 16.82394531 -15.37109375 16.10742188 C-14.62988281 15.39134766 -13.88867188 14.67527344 -13.125 13.9375 C-12.02478516 12.85758789 -12.02478516 12.85758789 -10.90234375 11.75585938 C-9.53609181 10.41573794 -8.1667817 9.07872214 -6.79345703 7.74584961 C-5.63184218 6.61506989 -4.49508192 5.45794433 -3.39013672 4.27172852 C-2 3 -2 3 0 3 C0 2.01 0 1.02 0 0 Z " fill="#92DCB6" transform="translate(264,236)"/>
<path d="M0 0 C0.99 0.33 1.98 0.66 3 1 C-0.68433909 5.48095294 -4.56957044 9.72760139 -8.625 13.875 C-10.00558594 15.29425781 -10.00558594 15.29425781 -11.4140625 16.7421875 C-13.79091346 18.81744408 -14.92830045 19.66831413 -18 20 C-17.34 18.68 -16.68 17.36 -16 16 C-15.34 16 -14.68 16 -14 16 C-13.67 15.01 -13.34 14.02 -13 13 C-11.0625 10.8125 -11.0625 10.8125 -9 9 C-8.34 9 -7.68 9 -7 9 C-7 8.34 -7 7.68 -7 7 C-6.34 7 -5.68 7 -5 7 C-5 6.34 -5 5.68 -5 5 C-4.34 5 -3.68 5 -3 5 C-2.67 4.01 -2.34 3.02 -2 2 C-1.34 2 -0.68 2 0 2 C0 1.34 0 0.68 0 0 Z " fill="#8DDEB8" transform="translate(221,151)"/>
<path d="M0 0 C0.625 1.8125 0.625 1.8125 1 4 C0.01 5.485 0.01 5.485 -1 7 C-1.09523098 9.05367686 -0.93639486 11.01423209 -0.77734375 13.0625 C-1 15 -1 15 -2.4609375 16.23828125 C-4.95628189 19.09462724 -4.57658092 22.55886139 -4.6875 26.1875 C-4.72166016 26.93708984 -4.75582031 27.68667969 -4.79101562 28.45898438 C-4.87334294 30.30546838 -4.93835281 32.15270994 -5 34 C-5.33 34 -5.66 34 -6 34 C-7.23833716 10.21122564 -7.23833716 10.21122564 0 0 Z " fill="#52D29A" transform="translate(142,232)"/>
<path d="M0 0 C1.83498047 -0.03867188 1.83498047 -0.03867188 3.70703125 -0.078125 C7.38085454 0.26822871 9.23174837 1.11059882 12.1875 3.25 C11.1975 3.91 10.2075 4.57 9.1875 5.25 C7.54901863 4.74842407 5.91179067 4.2418829 4.28515625 3.703125 C-1.18158854 2.52222668 -7.43963644 3.99633183 -12.8125 5.25 C-8.39485003 0.68509503 -6.39039278 0.08029813 0 0 Z " fill="#84DCAD" transform="translate(256.8125,124.75)"/>
<path d="M0 0 C0.66 0.66 1.32 1.32 2 2 C0.71034824 3.37562854 -0.62689293 4.70766393 -2 6 C-2.66 6 -3.32 6 -4 6 C-4 6.66 -4 7.32 -4 8 C-4.78375 8.598125 -5.5675 9.19625 -6.375 9.8125 C-9.21844262 12.18203551 -9.68117838 13.65898524 -11 17 C-12.31647119 17.69937532 -13.65022151 18.36729133 -15 19 C-15.68268138 20.32520503 -16.3507041 21.65812182 -17 23 C-17.99 23.33 -18.98 23.66 -20 24 C-20 24.66 -20 25.32 -20 26 C-20.99 25.67 -21.98 25.34 -23 25 C-18.86588259 20.20273065 -14.64902319 15.48506555 -10.375 10.8125 C-9.92020264 10.31395508 -9.46540527 9.81541016 -8.99682617 9.30175781 C-6.0744929 6.11645159 -3.07500993 3.03615601 0 0 Z " fill="#0FB578" transform="translate(185,318)"/>
<path d="M0 0 C5.28 0 10.56 0 16 0 C16 0.66 16 1.32 16 2 C17.32 2 18.64 2 20 2 C20 2.66 20 3.32 20 4 C14.39 4 8.78 4 3 4 C2.67 3.01 2.34 2.02 2 1 C1.34 0.67 0.68 0.34 0 0 Z " fill="#49D395" transform="translate(328,290)"/>
<path d="M0 0 C2.4375 1.625 2.4375 1.625 4.875 3.25 C4.875 3.91 4.875 4.57 4.875 5.25 C6.195 5.25 7.515 5.25 8.875 5.25 C8.875 5.91 8.875 6.57 8.875 7.25 C2.91992601 6.8583965 -1.75319824 5.87875405 -7.125 3.25 C-7.125 2.59 -7.125 1.93 -7.125 1.25 C-2.7112069 -0.95689655 -2.7112069 -0.95689655 0 0 Z " fill="#57D2A2" transform="translate(166.125,368.75)"/>
<path d="M0 0 C0.66 0.99 1.32 1.98 2 3 C0.88663905 7.57715056 -1.95222895 10.55120645 -5 14 C-6.60725635 10.78548731 -6.05748185 7.56387464 -6 4 C-5.38125 3.71125 -4.7625 3.4225 -4.125 3.125 C-1.86674235 2.06279958 -1.86674235 2.06279958 0 0 Z " fill="#44D687" transform="translate(272,223)"/>
<path d="M0 0 C0.66 0 1.32 0 2 0 C0.73653206 7.83350122 -1.83429613 15.60517372 -8.1953125 20.7890625 C-8.79085938 21.18867188 -9.38640625 21.58828125 -10 22 C-10.33 21.01 -10.66 20.02 -11 19 C-10.34 18.34 -9.68 17.68 -9 17 C-8.01 17 -7.02 17 -6 17 C-6 16.01 -6 15.02 -6 14 C-5.34 14 -4.68 14 -4 14 C-3.896875 13.360625 -3.79375 12.72125 -3.6875 12.0625 C-2.76096927 7.93522674 -1.38339371 3.99357051 0 0 Z " fill="#87DCAF" transform="translate(376,342)"/>
<path d="M0 0 C0.66 0.33 1.32 0.66 2 1 C-0.75201859 7.76537903 -3.49226986 10.71454401 -10 14 C-10.33 13.01 -10.66 12.02 -11 11 C-10.34 11 -9.68 11 -9 11 C-9 10.34 -9 9.68 -9 9 C-6.625 6.375 -6.625 6.375 -4 4 C-3.34 4 -2.68 4 -2 4 C-1.34 2.68 -0.68 1.36 0 0 Z " fill="#7BDCB2" transform="translate(201,171)"/>
<path d="M0 0 C-0.33 0.99 -0.66 1.98 -1 3 C-5.77092956 4.23402862 -10.42469446 4.11265112 -15.3125 4.0625 C-16.14845703 4.05798828 -16.98441406 4.05347656 -17.84570312 4.04882812 C-19.89716649 4.03710548 -21.94859273 4.01917203 -24 4 C-24 3.67 -24 3.34 -24 3 C-23.27554687 2.95101563 -22.55109375 2.90203125 -21.8046875 2.8515625 C-14.30758027 2.27178621 -7.49016602 -0.29960664 0 0 Z " fill="#57D097" transform="translate(352,372)"/>
<path d="M0 0 C2 1 2 1 4 4 C1.40577019 6.87218301 -0.19706844 8.3085579 -4 9 C-5.6744239 9.6469365 -7.34302621 10.30959426 -9 11 C-8.21654285 9.82780457 -7.42297164 8.66236332 -6.625 7.5 C-6.18414062 6.8503125 -5.74328125 6.200625 -5.2890625 5.53125 C-4.86367187 5.0259375 -4.43828125 4.520625 -4 4 C-3.34 4 -2.68 4 -2 4 C-2 3.34 -2 2.68 -2 2 C-1.34 2 -0.68 2 0 2 C0 1.34 0 0.68 0 0 Z " fill="#55DA9F" transform="translate(188,184)"/>
<path d="M0 0 C0.66 0.33 1.32 0.66 2 1 C1.236875 1.70125 0.47375 2.4025 -0.3125 3.125 C-2.99133709 5.9907327 -4.29199134 8.50972143 -6 12 C-8.1875 14.375 -8.1875 14.375 -10 16 C-10.33 14.35 -10.66 12.7 -11 11 C-10.34 11 -9.68 11 -9 11 C-9 10.34 -9 9.68 -9 9 C-8.34 9 -7.68 9 -7 9 C-7 8.34 -7 7.68 -7 7 C-6.34 7 -5.68 7 -5 7 C-4.731875 6.401875 -4.46375 5.80375 -4.1875 5.1875 C-3.01506533 3.02775192 -1.80630718 1.64209744 0 0 Z " fill="#8FE4B7" transform="translate(242,130)"/>
<path d="M0 0 C0 3 0 3 -1.86328125 5.15625 C-2.67152344 5.9296875 -3.47976562 6.703125 -4.3125 7.5 C-5.11300781 8.2734375 -5.91351563 9.046875 -6.73828125 9.84375 C-8.05972005 11.1035673 -9.38751214 12.35689606 -10.73046875 13.59375 C-12.25332478 15.09165792 -12.25332478 15.09165792 -13 18 C-13.99 18.33 -14.98 18.66 -16 19 C-16 16 -16 16 -14.53125 14.19067383 C-13.8609375 13.53607178 -13.190625 12.88146973 -12.5 12.20703125 C-11.778125 11.49482422 -11.05625 10.78261719 -10.3125 10.04882812 C-9.549375 9.31083984 -8.78625 8.57285156 -8 7.8125 C-6.8553125 6.68811523 -6.8553125 6.68811523 -5.6875 5.54101562 C-3.79819161 3.68713177 -1.90224794 1.84058931 0 0 Z " fill="#0FB577" transform="translate(210,293)"/>
<path d="M0 0 C1.00023193 0.00523682 2.00046387 0.01047363 3.03100586 0.01586914 C4.1105957 0.0190918 5.19018555 0.02231445 6.30249023 0.02563477 C8.00695312 0.03820312 8.00695312 0.03820312 9.74584961 0.05102539 C11.45611328 0.05779297 11.45611328 0.05779297 13.20092773 0.06469727 C16.02845312 0.07652792 18.85587601 0.09301129 21.68334961 0.11352539 C19.68334961 2.11352539 19.68334961 2.11352539 15.90991211 2.23852539 C13.59909352 2.19038334 11.29022437 2.11291716 8.98022461 2.03540039 C3.55523009 1.87636914 3.55523009 1.87636914 -1.31665039 4.11352539 C-1.97665039 3.12352539 -2.63665039 2.13352539 -3.31665039 1.11352539 C-2.31665039 0.11352539 -2.31665039 0.11352539 0 0 Z " fill="#1FB980" transform="translate(214.316650390625,290.886474609375)"/>
<path d="M0 0 C0.66 0.33 1.32 0.66 2 1 C0.92173635 2.27513763 -0.16285519 3.54492569 -1.25 4.8125 C-1.85328125 5.52019531 -2.4565625 6.22789062 -3.078125 6.95703125 C-4.92370398 8.91889671 -6.79945332 10.45669625 -9 12 C-9 9 -9 9 -7.03125 6.73828125 C-5.77828125 5.53751953 -5.77828125 5.53751953 -4.5 4.3125 C-3.6646875 3.50425781 -2.829375 2.69601562 -1.96875 1.86328125 C-1.3190625 1.24839844 -0.669375 0.63351562 0 0 Z " fill="#93DBB5" transform="translate(238,263)"/>
<path d="M0 0 C0.33 1.32 0.66 2.64 1 4 C0.01 4.33 -0.98 4.66 -2 5 C-2.3721042 6.32303717 -2.70630173 7.65737935 -3 9 C-3.99 9.495 -3.99 9.495 -5 10 C-4.56802365 5.2482602 -3.67230705 3.07999946 0 0 Z M-8 11 C-7.01 11.495 -7.01 11.495 -6 12 C-6.99 12.495 -6.99 12.495 -8 13 C-8 12.34 -8 11.68 -8 11 Z " fill="#5AD9A2" transform="translate(166,207)"/>
<path d="M0 0 C3 3.75 3 3.75 3 6 C3.66 6 4.32 6 5 6 C5 7.32 5 8.64 5 10 C5.66 10 6.32 10 7 10 C7 10.66 7 11.32 7 12 C5.68 12 4.36 12 3 12 C2.49440092 10.56445975 1.9957251 9.1264798 1.5 7.6875 C1.2215625 6.88699219 0.943125 6.08648437 0.65625 5.26171875 C0 3 0 3 0 0 Z " fill="#5ECFA1" transform="translate(136,339)"/>
<path d="M0 0 C0.66 0 1.32 0 2 0 C2 0.66 2 1.32 2 2 C2.66 2 3.32 2 4 2 C5.38938077 3.96147874 6.7260411 5.96166576 8 8 C7.67 8.66 7.34 9.32 7 10 C4.0625 8.375 4.0625 8.375 1 6 C0.125 2.75 0.125 2.75 0 0 Z " fill="#87DEB1" transform="translate(366,302)"/>
<path d="M0 0 C0.66 0.33 1.32 0.66 2 1 C1.36191406 1.62648438 0.72382813 2.25296875 0.06640625 2.8984375 C-0.75988281 3.71570313 -1.58617187 4.53296875 -2.4375 5.375 C-3.26121094 6.18710937 -4.08492187 6.99921875 -4.93359375 7.8359375 C-7.03434672 9.82348515 -7.03434672 9.82348515 -8 12 C-8.66 12 -9.32 12 -10 12 C-10 10.68 -10 9.36 -10 8 C-7.25 6 -7.25 6 -4 4 C-2.63113049 2.70317626 -1.2830709 1.38176866 0 0 Z " fill="#65CE9A" transform="translate(227,274)"/>
<path d="M0 0 C0.66 0 1.32 0 2 0 C2.17835515 4.54805635 1.99785435 7.8794254 0 12 C-0.33 12 -0.66 12 -1 12 C-1.02698189 10.37509046 -1.04638757 8.75005367 -1.0625 7.125 C-1.07410156 6.22007812 -1.08570313 5.31515625 -1.09765625 4.3828125 C-1 2 -1 2 0 0 Z " fill="#73D4A0" transform="translate(275,214)"/>
<path d="M0 0 C1.32 0.33 2.64 0.66 4 1 C-1.14285714 6.57142857 -1.14285714 6.57142857 -5 7 C-4.34 5.68 -3.68 4.36 -3 3 C-2.34 3 -1.68 3 -1 3 C-0.67 2.01 -0.34 1.02 0 0 Z " fill="#8FDEBA" transform="translate(208,164)"/>
<path d="M0 0 C0 3 0 3 -2.1875 5.625 C-5.00654002 8.00552268 -6.39755548 8.69121904 -10 9 C-7.77428384 5.60285428 -5.51273914 3.98154515 -2 2 C-1.34 1.34 -0.68 0.68 0 0 Z " fill="#3FD390" transform="translate(211,165)"/>
<path d="M0 0 C0.66 0.99 1.32 1.98 2 3 C1.0465616 6.46704871 -0.28676594 8.6567524 -3 11 C-2.44894091 7.0507432 -1.61064629 3.65079826 0 0 Z " fill="#6BD89F" transform="translate(272,223)"/>
<path d="M0 0 C0.66 0.33 1.32 0.66 2 1 C0.54744301 4.82946843 -1.42895561 6.12050295 -5 8 C-5.33 7.34 -5.66 6.68 -6 6 C-5.34 6 -4.68 6 -4 6 C-4 5.34 -4 4.68 -4 4 C-3.34 4 -2.68 4 -2 4 C-2 3.34 -2 2.68 -2 2 C-1.34 2 -0.68 2 0 2 C0 1.34 0 0.68 0 0 Z " fill="#8DDDB7" transform="translate(229,143)"/>
<path d="M0 0 C7.75 0.75 7.75 0.75 10 3 C9 4 9 4 5.9375 4.0625 C4.968125 4.041875 3.99875 4.02125 3 4 C3.33 3.01 3.66 2.02 4 1 C2.68 0.67 1.36 0.34 0 0 Z " fill="#7BDCAF" transform="translate(344,291)"/>
<path d="M0 0 C0.33 1.32 0.66 2.64 1 4 C-1.31 5.32 -3.62 6.64 -6 8 C-4.55746343 4.63408134 -2.66735273 2.48952921 0 0 Z " fill="#8EDDBA" transform="translate(149,224)"/>
<path d="M0 0 C2.78349856 1.0558098 4.00409146 2.00518252 5.875 4.375 C7 7 7 7 6.1875 9.3125 C5.795625 9.869375 5.40375 10.42625 5 11 C4.80664062 10.45730469 4.61328125 9.91460937 4.4140625 9.35546875 C4.15367187 8.64003906 3.89328125 7.92460937 3.625 7.1875 C3.36976563 6.47980469 3.11453125 5.77210938 2.8515625 5.04296875 C1.9734231 2.75226641 1.9734231 2.75226641 0 0 Z " fill="#A1E5C3" transform="translate(269,129)"/>
<path d="M0 0 C1.32 0.33 2.64 0.66 4 1 C2.35 2.65 0.7 4.3 -1 6 C-1.99 5.67 -2.98 5.34 -4 5 C-3.34 4.01 -2.68 3.02 -2 2 C-1.34 2 -0.68 2 0 2 C0 1.34 0 0.68 0 0 Z " fill="#7DD9B0" transform="translate(214,158)"/>
<path d="M0 0 C0.66 0 1.32 0 2 0 C1.34 2.97 0.68 5.94 0 9 C-0.66 9 -1.32 9 -2 9 C-1.51421457 5.87709365 -1.0013988 3.00419641 0 0 Z " fill="#7BD3A7" transform="translate(376,342)"/>
<path d="M0 0 C0.6875 1.6875 0.6875 1.6875 1 4 C-0.3125 6.75 -0.3125 6.75 -2 9 C-2.66 9 -3.32 9 -4 9 C-2.94124926 5.59687262 -1.99097846 2.98646769 0 0 Z " fill="#7ED7B0" transform="translate(142,232)"/>
<path d="M0 0 C0.33 0.66 0.66 1.32 1 2 C-0.4375 4.625 -0.4375 4.625 -2 7 C-3.32 6.67 -4.64 6.34 -6 6 C-4.02 4.02 -2.04 2.04 0 0 Z " fill="#84DCB7" transform="translate(156,217)"/>
<path d="M0 0 C0 3.57575896 -1.08840607 5.05295935 -3 8 C-4.32 7.67 -5.64 7.34 -7 7 C-4.69 4.69 -2.38 2.38 0 0 Z " fill="#89DCB7" transform="translate(174,199)"/>
<path d="M0 0 C-5.2734375 3.22265625 -5.2734375 3.22265625 -7 4 C-7.66 3.67 -8.32 3.34 -9 3 C-5.83583464 -0.30799106 -4.50236011 -1.35070803 0 0 Z " fill="#81DAAF" transform="translate(360,370)"/>
<path d="M0 0 C0.66 0.33 1.32 0.66 2 1 C1.25 2.9375 1.25 2.9375 0 5 C-2.125 5.75 -2.125 5.75 -4 6 C-4 5.34 -4 4.68 -4 4 C-3.34 4 -2.68 4 -2 4 C-2 3.34 -2 2.68 -2 2 C-1.34 2 -0.68 2 0 2 C0 1.34 0 0.68 0 0 Z " fill="#92DEBC" transform="translate(188,184)"/>
<path d="M0 0 C0 3.93169105 -1.39419615 5.16427228 -4 8 C-4.66 8 -5.32 8 -6 8 C-4.55746343 4.63408134 -2.66735273 2.48952921 0 0 Z " fill="#4FCE8C" transform="translate(244,130)"/>
</svg>
